<?xml version="1.0" standalone="no"?>
<!DOCTYPE svg PUBLIC "-//W3C//DTD SVG 20010904//EN"
 "http://www.w3.org/TR/2001/REC-SVG-20010904/DTD/svg10.dtd">
<svg version="1.0" xmlns="http://www.w3.org/2000/svg"
 width="768.000000pt" height="1024.000000pt" viewBox="0 0 768.000000 1024.000000"
 preserveAspectRatio="xMidYMid meet">

<g transform="translate(0.000000,1024.000000) scale(0.100000,-0.100000)"
fill="#000000" stroke="none">
<path d="M0 8767 c0 -33 90 -95 200 -136 47 -18 110 -47 140 -65 30 -19 95
-51 143 -71 48 -21 105 -50 127 -66 21 -16 81 -48 132 -72 51 -24 132 -68 179
-98 110 -70 133 -81 379 -189 113 -50 264 -124 335 -165 72 -41 162 -87 200
-103 39 -16 113 -56 165 -88 97 -61 123 -74 266 -138 206 -92 840 -425 1011
-532 73 -45 82 -67 65 -163 -6 -33 -8 -108 -5 -171 l6 -111 -109 55 c-60 30
-156 71 -213 91 -132 47 -190 72 -551 238 -383 175 -384 176 -662 272 -153 53
-261 97 -305 123 -37 23 -117 60 -178 82 -60 22 -135 53 -165 69 -30 16 -102
44 -160 64 -58 19 -161 62 -230 95 -69 33 -163 73 -210 88 -47 15 -110 39
-141 54 -30 16 -82 36 -115 45 -32 10 -114 44 -181 76 -86 40 -123 53 -123 43
0 -29 165 -114 268 -138 31 -7 76 -22 98 -34 23 -12 95 -39 160 -62 65 -22
180 -70 254 -105 74 -35 162 -71 195 -81 33 -9 107 -39 165 -66 58 -28 142
-63 188 -78 45 -16 95 -38 112 -50 47 -33 124 -66 359 -150 256 -92 385 -145
664 -274 294 -136 415 -188 572 -246 161 -60 152 -56 350 -165 181 -101 259
-133 570 -241 132 -45 276 -96 320 -112 105 -40 295 -130 295 -141 0 -14 -243
-51 -407 -61 -166 -11 -168 -11 -248 -37 l-51 -16 -129 41 c-189 60 -324 100
-656 196 -271 78 -428 121 -984 267 -309 82 -535 148 -995 296 -319 102 -508
155 -677 191 -87 19 -159 40 -185 55 -24 14 -63 28 -88 31 -25 4 -64 12 -88
18 -23 6 -45 8 -49 4 -13 -13 34 -35 92 -41 33 -4 85 -20 115 -35 30 -15 80
-33 110 -39 30 -6 91 -18 135 -27 161 -33 658 -181 805 -240 79 -31 389 -124
416 -124 8 0 11 -36 10 -127 0 -71 1 -155 4 -187 l5 -59 -64 -35 -63 -35 -167
41 c-91 22 -209 48 -261 57 -143 24 -184 34 -315 76 -66 21 -183 50 -260 64
-76 15 -229 49 -340 77 -228 57 -227 57 -232 42 -9 -27 259 -99 464 -124 111
-14 297 -59 433 -105 58 -20 144 -42 192 -50 48 -7 166 -35 263 -61 l176 -48
-40 -40 c-46 -48 -67 -88 -126 -240 -49 -125 -69 -222 -63 -301 3 -41 14 -68
46 -117 54 -83 78 -157 96 -293 8 -60 13 -110 12 -111 0 -1 -44 3 -96 8 -133
13 -327 -3 -380 -31 -36 -19 -70 -52 -70 -68 0 -18 -73 -17 -109 1 -27 15 -28
16 -20 73 10 68 5 90 -20 98 -11 3 -72 12 -137 20 -66 8 -135 19 -154 25 -20
6 -64 8 -100 4 -90 -8 -118 4 -122 53 -4 45 -23 53 -58 25 -20 -16 -24 -29
-25 -73 l0 -54 -36 -3 -36 -3 3 53 c2 29 5 154 8 278 2 124 10 257 17 297 7
40 10 75 6 79 -4 4 -29 9 -57 12 -42 4 -50 2 -50 -13 0 -14 6 -16 42 -10 l41
7 -7 -53 c-20 -160 -26 -231 -35 -402 -6 -103 -8 -208 -4 -232 6 -44 6 -45 44
-45 21 0 49 4 63 10 23 8 26 15 26 59 0 59 7 81 26 81 9 0 14 -12 14 -35 0
-46 20 -55 127 -55 48 0 99 -3 111 -7 l24 -6 -4 -161 c-3 -89 -8 -169 -12
-178 -12 -27 -34 -22 -51 12 -17 32 -43 50 -73 50 -24 0 -32 18 -32 69 0 54
-12 61 -112 61 -97 0 -108 -7 -108 -70 0 -17 -5 -41 -11 -52 -9 -17 -17 -19
-50 -14 -30 5 -39 3 -39 -8 0 -17 21 -26 61 -26 23 0 32 7 49 40 11 21 20 53
20 70 0 36 26 50 91 50 63 0 79 -13 79 -66 0 -61 15 -87 45 -80 26 7 47 -9 70
-55 11 -20 23 -29 41 -29 37 0 54 49 55 157 0 48 4 108 7 133 l7 44 14 -29 c8
-17 17 -50 20 -75 l6 -45 108 -5 c81 -4 110 -9 117 -20 18 -27 8 -43 -41 -63
-28 -11 -40 -24 -49 -51 -11 -35 -13 -36 -60 -36 l-48 0 -11 -50 c-6 -28 -11
-69 -11 -90 0 -65 -20 -139 -40 -150 -26 -14 -77 -12 -83 3 -4 9 -8 9 -15 -2
-8 -11 -42 -9 -212 14 -167 22 -204 24 -211 13 -14 -21 -10 -106 7 -166 15
-49 15 -68 4 -159 -10 -81 -10 -107 -1 -116 8 -8 66 -13 176 -16 l163 -3 -136
-103 c-75 -56 -156 -123 -180 -147 -39 -41 -43 -49 -40 -89 l3 -44 55 73 c37
49 79 89 127 122 39 28 73 50 75 50 2 0 -40 -87 -94 -194 -158 -314 -169 -343
-166 -429 l3 -72 33 101 c42 129 197 438 287 574 68 103 73 107 188 183 65 44
121 77 123 74 3 -2 -11 -33 -30 -68 -49 -90 -178 -379 -241 -539 -91 -233
-252 -747 -289 -927 -8 -38 -22 -142 -31 -229 -9 -87 -23 -193 -31 -234 -9
-51 -14 -141 -13 -280 1 -149 4 -191 10 -155 8 49 67 536 90 745 31 292 186
757 426 1284 58 127 117 257 131 289 14 31 28 57 32 57 4 0 11 -17 16 -37 13
-53 54 -77 186 -108 84 -20 131 -26 188 -23 68 3 82 7 155 50 86 50 94 53 290
124 72 25 182 75 245 110 144 79 278 125 385 131 71 5 90 2 165 -25 232 -82
439 -184 504 -249 22 -23 43 -60 60 -111 15 -42 35 -95 44 -117 29 -69 170
-294 247 -397 l75 -98 0 -93 c0 -51 -5 -108 -10 -127 -22 -74 -30 -200 -20
-308 l10 -107 -32 -65 c-25 -50 -61 -92 -152 -182 -66 -65 -123 -118 -127
-118 -5 0 -39 -44 -78 -98 -83 -117 -123 -155 -223 -210 -41 -23 -122 -76
-178 -117 -57 -42 -104 -74 -106 -72 -2 1 -11 38 -20 82 -21 98 -23 240 -6
484 10 149 10 212 0 335 -7 83 -12 243 -12 356 2 178 5 222 28 332 29 142 34
239 12 257 -10 9 -16 8 -26 -4 -7 -8 -24 -15 -39 -15 -69 0 -122 -65 -195
-239 -95 -226 -178 -506 -239 -811 l-24 -115 -122 -70 c-67 -38 -145 -88 -174
-111 -97 -75 -251 -305 -371 -554 -47 -97 -69 -167 -146 -450 -50 -184 -123
-429 -162 -545 l-71 -210 -5 -232 -5 -233 27 0 c31 0 29 -21 30 250 l1 215 58
165 c32 91 93 298 137 460 126 472 152 540 286 764 103 169 170 262 233 318
62 56 276 169 267 142 -18 -60 -38 -295 -46 -553 -10 -324 -21 -407 -74 -584
-81 -268 -96 -397 -96 -859 l0 -318 54 0 c51 0 55 2 65 30 18 52 -4 77 -40 45
-16 -15 -17 2 -21 287 -6 439 4 537 82 798 58 192 69 274 80 640 8 258 21 401
50 545 49 251 66 328 97 450 62 244 177 557 235 638 21 29 94 87 110 87 15 0
8 -81 -18 -208 -21 -104 -26 -155 -27 -306 -1 -102 4 -234 12 -303 14 -120 12
-247 -5 -576 -4 -72 -2 -177 6 -267 l14 -148 50 -92 c28 -50 91 -142 140 -204
l88 -113 -1 -274 c-1 -172 -7 -315 -16 -384 -34 -252 -37 -294 -31 -375 6 -90
26 -171 57 -233 15 -29 25 -37 47 -37 59 0 67 22 88 238 8 92 22 199 30 237
38 180 141 485 165 485 12 0 131 -85 156 -112 20 -21 22 -34 25 -193 l2 -170
-51 -122 c-76 -177 -84 -252 -37 -333 15 -24 25 -30 53 -30 l35 0 -26 28 c-58
62 -61 98 -18 236 37 122 69 284 77 398 3 49 9 91 14 93 4 3 27 -11 51 -31 23
-20 97 -63 162 -95 83 -41 132 -72 161 -102 46 -49 96 -64 154 -47 18 5 46 7
62 3 32 -6 38 3 13 22 -14 10 -13 15 15 42 17 17 70 55 117 84 63 39 110 78
173 147 47 52 112 112 144 133 65 45 64 43 142 271 55 159 82 222 134 304 17
25 33 59 36 75 4 16 10 31 14 33 8 5 199 -33 317 -63 78 -20 132 -40 290 -109
155 -68 218 -80 699 -137 246 -30 373 -60 685 -164 235 -79 340 -108 515 -145
121 -25 274 -61 340 -80 220 -62 296 -79 308 -67 14 14 -20 27 -105 41 -37 6
-124 28 -194 50 -69 21 -196 53 -282 70 -213 42 -391 90 -547 145 -317 112
-473 152 -660 165 -66 5 -165 19 -220 30 -55 12 -154 27 -220 35 -134 15 -191
32 -380 112 -126 54 -369 124 -485 139 l-52 7 6 46 c3 25 8 81 12 124 l7 77
62 0 c79 0 174 -25 551 -144 354 -112 447 -136 649 -171 162 -28 180 -32 299
-70 43 -14 146 -34 229 -45 241 -32 269 -38 419 -85 220 -70 312 -92 453 -111
72 -9 141 -21 155 -26 14 -6 59 -14 102 -18 64 -7 119 -24 216 -67 6 -3 12 0
12 6 0 14 -82 55 -150 75 -30 8 -134 27 -230 40 -249 36 -271 41 -506 111
-197 59 -313 84 -549 115 -49 7 -141 28 -203 46 -61 19 -169 43 -240 54 -145
24 -257 52 -567 145 -268 80 -533 149 -637 166 l-78 13 -1 45 c0 26 -2 55 -4
65 -13 71 -40 177 -56 223 -15 46 -17 62 -8 101 6 26 15 54 20 62 21 34 63
129 89 200 l28 75 58 17 c33 9 91 17 131 17 40 1 75 6 79 12 3 6 17 8 31 4 14
-3 48 1 76 8 29 8 85 18 126 21 78 7 191 32 299 67 45 15 74 19 103 14 29 -5
44 -3 49 5 6 10 31 7 112 -13 64 -15 147 -27 218 -31 63 -3 160 -15 215 -26
55 -11 127 -20 161 -20 33 0 80 -6 105 -14 27 -9 109 -16 209 -20 119 -4 201
-12 295 -31 72 -14 173 -28 225 -31 52 -3 124 -11 160 -19 36 -8 99 -19 140
-25 41 -6 100 -15 130 -20 56 -10 170 -3 170 10 0 4 -46 10 -102 13 -57 4
-160 18 -230 31 -70 14 -173 28 -230 32 -57 3 -168 19 -248 34 -104 20 -193
30 -314 34 -93 4 -193 13 -222 21 -29 7 -101 17 -161 20 -59 4 -135 13 -168
20 -33 7 -105 16 -159 20 -55 3 -140 14 -190 25 -50 10 -121 21 -158 25 -37 4
-70 11 -73 16 -11 17 -27 9 -22 -10 4 -16 -6 -23 -50 -40 -30 -12 -67 -21 -83
-21 -15 0 -47 -7 -71 -16 -71 -25 -245 -55 -364 -61 -60 -3 -129 -11 -153 -19
-70 -23 -82 -20 -82 22 0 28 -7 42 -35 67 -23 20 -35 40 -35 57 0 23 8 29 71
53 39 15 116 35 172 43 56 8 143 26 192 39 50 13 135 27 190 30 55 4 130 15
166 26 36 10 97 23 134 28 40 6 92 22 125 39 70 37 72 37 282 62 97 11 203 30
234 40 31 11 71 20 89 20 17 0 61 8 96 19 35 10 98 26 139 36 41 9 108 30 148
45 72 28 72 28 73 6 0 -11 4 -47 8 -78 l7 -56 -44 -7 c-24 -4 -62 -13 -85 -21
-23 -8 -109 -22 -192 -30 -125 -13 -169 -22 -265 -56 -63 -22 -164 -53 -225
-70 -144 -39 -205 -65 -205 -89 0 -15 8 -18 48 -17 26 1 96 -13 157 -31 82
-24 145 -35 245 -42 74 -6 155 -16 180 -24 70 -22 229 -35 410 -33 127 1 181
-2 235 -16 39 -9 142 -21 235 -26 91 -4 244 -20 340 -34 95 -14 178 -26 182
-26 10 0 11 30 1 30 -5 1 -39 5 -78 11 -97 14 -233 27 -415 39 -85 5 -180 17
-210 26 -40 12 -123 18 -310 24 -245 8 -341 17 -405 38 -16 6 -83 13 -147 17
-75 4 -158 16 -235 34 -65 16 -129 31 -143 33 l-25 4 31 16 c17 9 68 26 113
38 45 11 115 34 155 50 117 46 172 59 321 75 77 8 160 21 184 30 24 8 72 15
108 15 74 0 116 16 92 34 -37 27 -44 122 -41 596 2 289 0 465 -7 481 -5 15
-28 37 -52 50 -70 39 -130 144 -115 202 3 14 22 35 43 48 89 55 103 90 44 110
-23 8 -30 18 -37 52 -8 38 -12 43 -49 51 -22 5 -42 11 -44 12 -2 2 10 25 26
51 16 26 49 88 73 136 23 49 49 91 57 94 20 8 63 -13 63 -30 0 -8 17 -34 39
-58 52 -60 121 -168 121 -191 0 -11 -7 -18 -20 -18 -18 0 -20 -7 -20 -58 0
-47 -4 -63 -21 -78 -11 -10 -25 -27 -31 -38 -9 -17 -7 -18 12 -13 54 14 120
-44 120 -106 0 -13 -23 -68 -50 -123 -43 -83 -50 -105 -44 -134 7 -42 24 -473
30 -802 4 -185 8 -239 19 -248 10 -9 26 -5 72 18 65 33 122 47 263 62 151 17
262 40 298 61 18 10 63 25 100 33 91 19 122 32 122 52 0 11 -5 14 -17 9 -168
-68 -331 -110 -508 -130 -87 -10 -167 -26 -210 -42 -38 -13 -77 -27 -85 -29
-13 -4 -15 8 -12 84 l3 89 67 6 c51 5 85 16 143 46 41 22 98 43 124 47 27 4
67 15 90 25 22 10 62 19 89 19 65 0 306 59 313 77 10 25 -5 25 -99 -5 -51 -17
-127 -33 -168 -37 -41 -4 -108 -18 -149 -31 -40 -13 -82 -24 -92 -24 -9 0 -51
-13 -92 -30 -88 -35 -214 -67 -224 -56 -4 4 -10 60 -14 124 -4 64 -10 131 -14
148 l-7 31 149 8 c81 4 168 8 193 9 25 1 50 5 56 8 5 4 77 8 159 9 83 1 156 6
162 12 7 5 42 12 78 15 49 3 65 8 65 20 0 12 -11 14 -63 9 -35 -3 -70 -7 -78
-9 -10 -2 -16 17 -22 77 -4 44 -17 135 -27 202 -24 146 -29 450 -8 471 10 10
10 15 -2 22 -13 8 -15 48 -16 248 -2 220 -6 304 -20 405 -6 37 -6 37 -52 37
-26 1 -83 11 -127 24 -71 21 -81 27 -89 52 -15 50 -22 59 -58 68 -29 7 -45 4
-92 -17 -34 -16 -56 -32 -56 -42 0 -23 -55 -44 -212 -79 l-28 -6 0 129 c0 117
-2 134 -25 178 -30 60 -42 146 -51 381 -5 134 -4 182 5 182 6 0 11 11 11 25 0
38 28 31 69 -16 103 -119 186 -191 345 -299 93 -63 208 -151 255 -195 47 -44
109 -96 136 -115 28 -19 82 -63 122 -97 40 -35 75 -63 78 -63 32 0 -76 109
-162 163 -23 14 -84 66 -135 115 -58 54 -165 136 -279 212 -137 93 -207 148
-274 216 -49 50 -104 100 -121 112 -27 18 -33 32 -48 104 -68 332 -98 685 -60
722 8 9 20 16 26 16 6 0 7 18 3 49 l-7 50 39 19 c21 11 52 23 70 26 44 10 83
43 83 71 0 14 -14 35 -35 54 -40 35 -51 33 -100 -19 -16 -17 -39 -36 -50 -42
-18 -10 -18 -9 2 13 16 17 19 29 13 39 -22 35 -11 58 42 87 68 37 92 70 83
113 -5 24 -16 35 -42 47 -44 18 -58 13 -85 -33 -18 -31 -22 -34 -31 -19 -21
38 37 98 128 132 40 15 51 24 59 50 11 39 -8 74 -57 104 -46 28 -69 21 -87
-27 -19 -51 -35 -71 -73 -91 -26 -13 -31 -13 -45 0 -13 14 -13 33 -2 159 8
103 9 187 2 301 -8 143 -11 161 -31 180 -21 21 -23 21 -36 4 -20 -28 -29 -137
-20 -246 5 -53 7 -159 6 -237 -3 -126 -1 -145 18 -181 11 -22 17 -43 14 -47
-11 -11 -107 -6 -133 7 -14 8 -24 20 -22 30 8 46 -128 19 -151 -30 -14 -30 -3
-51 42 -77 27 -16 38 -17 76 -7 59 15 178 14 193 -1 13 -13 16 -75 6 -102 -5
-12 -20 -16 -57 -16 -41 0 -56 5 -77 25 l-27 26 -56 -21 c-72 -27 -83 -52 -38
-92 36 -32 63 -34 171 -16 87 15 106 6 102 -43 -1 -19 -9 -44 -18 -56 -12 -20
-23 -23 -74 -23 -55 0 -61 2 -70 25 -6 17 -17 25 -33 25 -59 0 -96 -75 -62
-126 18 -29 18 -29 162 -3 122 21 110 -6 -32 -76 -51 -25 -141 -81 -201 -125
-70 -52 -166 -108 -269 -160 -88 -44 -205 -111 -260 -151 -59 -42 -171 -106
-272 -156 -95 -46 -215 -112 -268 -144 l-95 -60 -168 81 c-92 45 -257 118
-367 162 -110 44 -289 125 -398 179 -109 55 -269 129 -355 165 -160 68 -233
103 -357 174 -38 22 -117 65 -175 96 -58 31 -148 80 -200 109 -194 107 -590
306 -730 368 -80 35 -170 81 -200 102 -30 20 -131 75 -225 121 -93 46 -224
114 -290 152 -66 37 -202 103 -302 146 -100 43 -226 105 -280 138 -54 33 -144
82 -200 108 -56 27 -123 63 -149 81 -26 18 -75 44 -108 58 -34 15 -99 48 -146
73 -47 26 -117 59 -155 73 -85 32 -142 64 -174 99 -27 29 -41 33 -41 13z
m6505 -624 c5 -98 4 -224 -2 -302 -12 -162 -8 -185 35 -189 58 -6 125 49 133
108 5 33 37 37 72 10 26 -21 34 -53 19 -77 -4 -6 -30 -21 -57 -33 -74 -31
-125 -85 -125 -131 0 -21 7 -42 15 -49 13 -11 22 -6 55 30 36 40 42 42 65 32
48 -22 27 -69 -50 -113 -59 -33 -75 -62 -56 -98 9 -17 6 -24 -20 -49 -29 -27
-30 -30 -14 -45 21 -21 44 -10 97 45 21 21 47 38 58 38 24 0 63 -36 57 -53 -2
-7 -36 -24 -76 -39 -99 -36 -114 -51 -106 -104 5 -38 3 -44 -22 -62 l-28 -20
1 -129 c0 -144 23 -337 60 -522 21 -101 23 -125 12 -132 -29 -18 1 -546 38
-671 3 -10 12 -18 20 -18 11 0 14 -20 15 -97 1 -133 7 -230 19 -310 5 -37 8
-69 6 -70 -8 -8 -56 22 -61 38 -3 9 -12 23 -21 29 -11 10 -18 9 -33 -4 -18
-16 -22 -15 -85 19 -36 20 -66 38 -66 39 0 2 19 3 43 4 23 0 54 5 70 11 24 9
27 15 27 58 -1 27 -5 67 -9 91 -7 35 -6 42 5 38 23 -9 24 9 2 53 -19 40 -20
47 -8 154 14 130 14 105 2 322 -12 217 -30 378 -49 434 -17 55 -37 463 -30
611 5 92 9 106 28 121 21 16 19 46 -2 33 -6 -3 -9 2 -7 12 3 17 -5 19 -69 22
-48 2 -84 -2 -109 -13 -20 -8 -47 -15 -60 -15 -20 0 -24 5 -24 33 0 54 37 77
55 35 9 -20 19 -23 71 -26 98 -5 131 19 147 106 13 64 -65 103 -145 73 -13 -4
-42 -11 -65 -15 -35 -5 -46 -2 -70 18 l-27 24 34 21 c44 27 64 27 82 -1 20
-29 126 -39 151 -13 19 18 24 128 8 154 -7 11 -35 13 -144 9 -74 -3 -142 -1
-151 4 -39 22 0 78 54 78 17 0 30 -9 42 -30 17 -30 18 -30 103 -30 99 0 103 4
80 70 -13 36 -17 101 -21 310 -4 260 0 340 16 340 4 0 11 -75 15 -167z m-1
-1703 c4 -25 9 -52 12 -61 3 -13 -5 -18 -38 -23 -23 -4 -140 -36 -260 -71
-152 -45 -261 -71 -360 -85 -78 -11 -176 -31 -218 -44 -82 -26 -140 -38 -140
-31 0 3 31 48 70 100 54 74 85 105 143 144 41 27 105 84 143 127 38 42 104
101 147 131 42 30 108 89 145 130 37 41 95 97 129 124 34 28 78 72 99 100 20
27 53 61 73 75 l36 24 6 -297 c4 -164 10 -318 13 -343z m-172 532 c-28 -39
-70 -79 -106 -101 -17 -11 -58 -50 -90 -87 -33 -36 -101 -97 -152 -135 -53
-39 -115 -96 -144 -132 -28 -35 -72 -80 -98 -99 -47 -36 -215 -204 -263 -264
-42 -52 -55 -51 -212 12 -78 31 -157 64 -176 74 l-33 17 88 57 c49 31 166 95
259 141 96 47 214 115 270 155 55 39 172 108 260 152 88 45 198 107 245 138
163 109 185 119 152 72z m-2668 -119 c72 -26 239 -101 371 -166 132 -66 332
-157 445 -204 113 -46 230 -97 260 -114 30 -16 97 -49 148 -74 50 -25 92 -47
92 -49 0 -9 -184 -119 -255 -153 -38 -18 -78 -33 -87 -33 -10 0 -62 22 -116
49 -106 53 -279 123 -412 166 -47 15 -128 47 -180 70 -52 23 -133 53 -180 66
-47 13 -150 56 -230 95 l-145 72 -2 51 c-7 151 -7 299 0 323 l7 27 76 -39 c42
-21 135 -60 208 -87z m-1724 -392 c96 -27 227 -66 290 -86 63 -20 248 -69 410
-110 274 -69 475 -125 810 -227 l135 -41 0 -171 c-1 -180 -10 -266 -29 -266
-6 -1 -75 16 -153 37 -111 30 -144 42 -151 58 -15 32 -99 71 -192 90 -199 39
-226 56 -331 201 -74 103 -182 203 -269 249 -101 52 -182 68 -320 62 -84 -4
-136 -1 -194 10 -79 16 -80 16 -94 -5 -8 -12 -20 -22 -26 -22 -6 0 -28 -11
-48 -25 -20 -14 -39 -25 -42 -25 -4 0 -6 72 -6 160 0 146 2 160 18 160 9 0 96
-22 192 -49z m4591 -182 c4 -25 8 -150 10 -279 l4 -233 -55 -14 c-49 -11 -311
-42 -366 -43 -12 0 -68 34 -125 76 -57 42 -147 101 -199 132 -52 31 -105 64
-116 74 -12 11 -66 36 -120 57 -103 40 -104 43 -10 56 28 4 71 15 96 25 49 19
97 29 270 56 110 16 476 103 545 128 22 8 44 13 50 12 5 -1 13 -23 16 -47z
m-1464 -68 c8 -4 6 -13 -7 -29 -12 -15 -48 -31 -102 -47 -106 -31 -177 -46
-158 -34 200 124 224 133 267 110z m-2753 -11 c123 -26 254 -119 355 -251 113
-149 155 -185 241 -213 41 -14 102 -30 135 -36 164 -31 199 -67 164 -169 -19
-54 -35 -55 -168 -11 -65 22 -128 40 -139 40 -12 0 -24 5 -28 11 -15 25 -129
89 -158 89 -40 0 -177 -42 -263 -81 -37 -17 -86 -37 -108 -44 -22 -7 -96 -33
-165 -58 -69 -24 -161 -57 -205 -72 -44 -15 -100 -37 -125 -48 -35 -15 -249
-74 -375 -104 -17 -4 -29 12 -72 97 -49 93 -53 106 -53 170 l0 69 35 7 c70 13
101 -2 195 -92 88 -85 110 -98 110 -66 0 69 -190 212 -282 212 -21 0 -38 2
-38 4 0 15 67 191 91 238 53 104 84 130 306 258 l114 65 192 -3 c106 -1 214
-7 241 -12z m3000 -82 l28 -15 -83 -26 c-91 -28 -180 -50 -185 -44 -2 1 -6 21
-10 44 -6 38 -4 42 23 56 16 9 35 22 41 30 11 13 22 12 85 -8 40 -12 86 -29
101 -37z m-274 -43 c0 -25 -2 -45 -4 -45 -3 0 -66 -11 -142 -25 l-137 -26 -45
30 -44 29 93 21 c159 35 264 59 272 60 4 0 7 -19 7 -44z m485 -50 c261 -115
348 -162 447 -242 53 -42 95 -79 93 -81 -7 -8 -144 -31 -271 -46 -211 -25
-230 -25 -261 -4 -15 10 -85 36 -154 58 -119 38 -128 42 -175 92 -48 51 -105
139 -119 186 -5 19 -3 22 22 23 15 0 75 15 133 34 58 19 118 34 133 34 16 1
84 -24 152 -54z m-965 -9 c0 -2 -28 -20 -62 -39 -35 -20 -94 -59 -133 -88
l-70 -53 -97 -4 c-73 -3 -98 -8 -98 -18 0 -40 166 -20 325 40 50 19 144 48
210 66 l120 31 126 -60 126 -60 6 -77 c12 -137 9 -192 -10 -202 -27 -14 -79
-20 -283 -37 -102 -9 -202 -20 -224 -26 -30 -8 -41 -8 -47 2 -6 10 -14 7 -32
-13 -33 -35 -74 -45 -207 -52 -88 -4 -129 -1 -175 11 -33 9 -62 18 -64 20 -2
1 3 11 12 21 22 24 37 106 37 200 0 63 -5 87 -32 146 -17 39 -38 78 -45 87
-13 15 -6 18 79 33 51 8 138 18 193 21 75 5 322 43 343 54 1 0 2 -1 2 -3z
m115 -18 c19 -13 35 -25 35 -28 0 -3 -42 -16 -92 -29 -51 -13 -118 -32 -148
-42 -40 -14 -51 -15 -40 -5 20 19 191 126 202 126 4 0 24 -10 43 -22z m395
-42 c10 -24 30 -63 45 -86 14 -23 24 -44 22 -47 -8 -7 -51 18 -66 39 -9 13
-20 18 -35 14 -25 -7 -231 73 -219 85 10 10 147 37 196 38 35 1 39 -2 57 -43z
m-1349 -5 c194 -66 208 -75 249 -153 14 -27 20 -57 20 -105 0 -110 -37 -223
-73 -223 -11 0 -86 16 -167 36 l-147 36 4 167 c4 187 11 271 22 271 4 0 45
-13 92 -29z m1334 -273 c5 -78 4 -118 -3 -118 -10 0 -23 215 -14 233 8 16 10
1 17 -115z m148 67 c51 -24 128 -54 172 -65 91 -23 135 -39 135 -50 0 -9 -126
-30 -187 -30 -44 0 -135 -12 -205 -26 l-28 -6 0 111 c0 71 4 111 10 111 6 0
52 -20 103 -45z m1362 -72 c-4 -32 -7 -88 -8 -124 l-1 -66 -186 89 c-189 91
-233 118 -194 118 41 0 338 30 343 35 2 3 15 5 29 5 23 0 24 -1 17 -57z m-235
-120 c69 -36 148 -78 175 -92 l50 -26 9 -83 c6 -61 5 -87 -4 -95 -7 -8 -46
-12 -105 -11 -86 1 -98 4 -147 33 -29 17 -86 47 -126 66 -41 20 -89 47 -107
61 -18 14 -50 30 -70 35 -20 6 -51 21 -71 34 -20 14 -64 28 -107 35 -88 15
-162 42 -202 74 l-30 24 80 7 c79 7 194 23 350 48 l80 14 50 -29 c28 -16 106
-58 175 -95z m-3581 53 c48 -26 53 -38 31 -82 -11 -21 -27 -56 -35 -76 -18
-48 -45 -50 -135 -7 -36 17 -93 35 -129 39 -69 9 -96 24 -71 40 14 9 244 84
285 93 11 3 21 5 23 6 2 0 15 -5 31 -13z m633 -40 c136 -41 357 -95 453 -111
98 -16 114 -20 224 -60 l74 -26 19 21 c17 18 27 20 76 15 51 -6 118 3 164 20
15 6 17 -18 22 -212 3 -120 9 -254 14 -298 5 -44 5 -84 0 -90 -5 -6 -74 3
-186 23 -273 49 -257 48 -276 21 -9 -14 -16 -43 -16 -70 0 -60 -7 -79 -31 -79
-12 0 -26 15 -39 40 -24 46 -45 60 -95 60 -28 0 -44 -7 -65 -30 -24 -25 -32
-29 -52 -21 -30 11 -75 3 -82 -15 -3 -7 0 -27 6 -44 18 -54 6 -56 -155 -37
-162 20 -366 23 -512 8 -55 -6 -125 -11 -156 -11 l-57 0 14 67 c30 142 68 233
96 233 32 0 87 22 92 36 3 9 -6 38 -20 64 -27 50 -26 70 5 70 48 0 116 125
108 200 -7 62 -32 80 -111 80 -63 0 -80 -6 -87 -28 -3 -10 -8 -10 -22 0 -17
12 -16 16 10 68 21 41 34 56 53 59 35 4 121 -16 188 -46 79 -35 146 -41 173
-17 29 26 59 87 59 120 0 19 4 25 15 20 8 -3 52 -17 97 -30z m2214 3 c67 -45
125 -68 216 -84 50 -9 96 -24 118 -39 21 -14 56 -29 78 -36 23 -6 54 -22 70
-35 17 -14 48 -36 71 -49 l42 -23 -41 -6 c-23 -3 -51 -14 -62 -24 -17 -15 -19
-25 -13 -68 4 -27 10 -81 14 -120 3 -38 11 -69 16 -68 17 3 24 65 13 123 -5
30 -12 68 -15 84 -7 34 8 46 57 46 l35 0 0 -97 c0 -81 3 -98 15 -98 12 0 14
12 12 63 -5 79 5 92 69 92 56 0 139 -29 226 -78 l61 -35 -59 -118 c-32 -65
-73 -134 -90 -153 -41 -48 -34 -64 33 -68 l53 -3 3 -46 c3 -43 5 -47 33 -53
19 -3 29 -11 27 -18 -3 -9 -36 -14 -106 -16 l-102 -3 0 25 c0 34 -19 42 -135
56 -55 7 -103 14 -107 16 -12 7 11 67 36 93 13 14 33 57 45 95 11 38 36 93 56
122 20 29 34 58 30 64 -18 29 -92 -90 -116 -185 -7 -26 -27 -72 -45 -102 -18
-31 -35 -60 -37 -67 -3 -8 -16 -7 -48 4 l-44 15 -7 111 c-9 130 -19 186 -35
191 -21 7 -22 -28 -8 -154 9 -69 13 -128 11 -130 -2 -3 -38 7 -80 21 -61 20
-94 25 -174 25 -57 0 -146 8 -212 20 -126 22 -144 23 -301 15 l-107 -6 -7 189
c-8 222 2 318 36 344 21 16 22 19 10 60 -7 24 -19 51 -27 60 -13 15 -10 18 33
29 26 6 100 16 163 21 63 5 131 13 150 18 66 17 99 13 146 -20z m-519 -43 c-3
-8 4 -33 15 -56 l21 -42 -21 -17 c-20 -15 -21 -26 -23 -231 -6 -574 4 -974 27
-1052 4 -14 -1 -18 -23 -18 -15 0 -37 7 -47 15 -18 14 -19 31 -11 592 9 632 9
654 0 731 -8 57 2 78 38 85 12 2 24 5 26 6 2 0 1 -5 -2 -13z m-89 -63 c6 -132
7 -202 4 -480 l-2 -293 -45 0 c-38 0 -51 6 -85 36 -37 34 -44 36 -86 30 -25
-3 -71 -20 -102 -38 -75 -41 -112 -35 -112 17 0 61 -15 83 -57 87 l-38 3 -8
75 c-14 134 -20 517 -8 538 13 24 84 35 345 57 92 8 171 16 174 19 13 14 17 3
20 -51z m-2571 -23 c65 -1 171 -23 202 -41 20 -12 59 -25 86 -29 68 -11 239
-84 243 -105 5 -24 -44 -83 -82 -99 -55 -23 -57 -105 -3 -125 19 -8 16 -10
-23 -21 -85 -23 -115 -74 -160 -275 -11 -49 -20 -105 -20 -124 l0 -34 -42 37
c-24 21 -72 58 -107 84 -122 89 -150 163 -116 300 24 99 20 112 -44 146 -67
36 -90 81 -91 178 0 87 11 113 57 136 l38 20 22 -24 c12 -13 30 -24 40 -24z
m-204 -78 c-10 -115 45 -231 116 -245 37 -8 41 -22 24 -82 -49 -175 -8 -272
167 -388 72 -47 130 -123 130 -169 0 -24 -6 -32 -37 -44 -33 -14 -42 -14 -97
0 -34 9 -73 20 -88 24 -20 5 -44 32 -88 99 -91 139 -170 200 -363 283 -75 32
-118 43 -189 51 -51 5 -124 18 -163 28 -38 10 -82 21 -97 25 -24 5 -26 9 -21
43 2 21 -2 72 -11 113 -9 41 -16 80 -16 87 0 17 149 72 217 79 32 3 82 17 111
30 29 14 94 35 145 48 50 13 128 38 172 54 44 17 83 31 87 31 4 1 4 -30 1 -67z
m4924 36 c6 -7 13 -67 16 -133 4 -80 12 -141 26 -185 24 -75 25 -82 10 -149
l-10 -49 -142 69 c-78 38 -164 76 -192 84 -27 8 -56 19 -64 24 -22 14 -51 101
-51 152 l0 45 106 13 c152 17 179 31 169 82 -5 21 0 28 27 41 40 20 92 23 105
6z m-4177 -50 c0 -13 -5 -18 -14 -15 -8 3 -34 12 -58 19 l-43 12 45 6 c57 7
70 3 70 -22z m4328 -73 c34 -9 77 -15 95 -13 l32 3 5 -205 c3 -113 5 -206 4
-207 0 -2 -41 -6 -90 -9 -78 -6 -92 -4 -112 13 -24 19 -24 19 -8 81 16 60 16
65 -4 128 -13 44 -20 94 -20 151 0 76 2 84 18 79 9 -3 45 -13 80 -21z m-1013
-15 c3 -5 -3 -10 -15 -10 -12 0 -18 5 -15 10 3 6 10 10 15 10 5 0 12 -4 15
-10z m375 -130 c0 -5 -4 -10 -9 -10 -6 0 -13 5 -16 10 -3 6 1 10 9 10 9 0 16
-4 16 -10z m90 -90 c0 -15 -5 -12 -26 11 -19 22 -19 22 4 10 12 -6 22 -16 22
-21z m-5997 -22 c17 -9 18 -17 12 -56 -4 -26 -8 -59 -8 -74 -2 -25 -6 -27 -62
-33 -78 -8 -93 -1 -101 43 -3 21 -12 57 -20 81 -8 25 -14 49 -14 54 0 12 166
0 193 -15z m6094 -8 c35 -8 59 -20 223 -108 l105 -57 -107 -3 c-76 -2 -109 -7
-118 -17 -19 -23 44 -28 177 -16 65 6 162 10 215 9 l96 -2 -1 -45 c0 -25 3
-74 7 -107 l9 -62 -102 -7 c-69 -5 -106 -4 -115 4 -7 6 -16 8 -20 4 -3 -4 -93
6 -199 22 l-192 29 -3 63 c-2 58 -1 63 18 63 11 0 23 6 26 14 5 14 -53 138
-88 188 -22 32 -15 53 16 43 11 -3 36 -10 53 -15z m-5683 -153 c-5 -46 -2 -72
10 -101 21 -50 20 -99 -1 -118 -10 -8 -45 -24 -78 -35 -48 -16 -74 -18 -133
-13 -40 4 -75 10 -79 13 -3 4 1 15 10 24 31 35 67 127 67 173 0 25 7 55 15 66
16 24 94 48 173 53 22 1 22 -1 16 -62z m286 52 c64 -6 147 -21 190 -35 41 -13
98 -24 126 -24 28 0 75 -7 105 -16 88 -26 272 -118 318 -159 77 -70 231 -331
231 -392 0 -40 -14 -43 -67 -19 -38 18 -70 47 -132 119 -69 81 -99 107 -189
163 -59 37 -138 89 -176 116 -65 45 -100 58 -108 41 -5 -12 -88 -77 -128 -102
-42 -25 -105 -27 -176 -6 -84 25 -155 29 -198 11 -21 -9 -40 -16 -41 -16 -2 0
6 17 16 37 22 44 24 88 4 123 -17 31 -19 67 -4 126 l11 44 52 0 c28 0 103 -5
166 -11z m2633 -63 c45 -13 130 -26 325 -52 l44 -5 -4 -334 c-1 -183 -5 -336
-8 -338 -9 -9 -448 -12 -456 -4 -13 12 -5 719 8 734 13 17 28 16 91 -1z m1221
-23 c5 -26 20 -147 21 -167 0 -5 -21 -15 -46 -22 -51 -15 -84 -45 -76 -69 4
-8 15 -15 26 -15 28 0 33 -35 21 -183 -6 -79 -7 -153 -1 -185 9 -60 12 -58
-65 -65 l-50 -6 -12 83 c-13 90 -16 264 -5 395 l6 83 41 -6 c23 -3 62 -8 89
-12 34 -5 47 -3 47 6 0 6 -9 14 -20 17 -12 3 -23 17 -26 32 -11 54 -22 96 -29
113 -7 17 8 24 52 27 16 1 23 -6 27 -26z m260 0 l79 -19 -138 -68 c-75 -37
-139 -65 -141 -63 -7 7 -24 109 -24 144 l0 35 73 -5 c39 -3 107 -14 151 -24z
m-392 3 c29 -6 48 -46 48 -100 0 -31 -1 -31 -42 -27 -53 5 -67 23 -68 88 0 55
-4 52 62 39z m-4260 -41 c-6 -44 -49 -135 -65 -135 -28 0 -52 -43 -69 -123 -9
-45 -17 -93 -18 -107 0 -25 -1 -25 -89 -26 -89 -1 -89 -1 -81 21 5 12 11 56
15 96 3 41 8 89 11 108 5 33 6 33 49 28 47 -7 58 0 69 46 4 18 18 33 44 45 27
12 40 26 47 50 9 31 12 33 50 30 38 -4 40 -5 37 -33z m4977 5 c47 -17 88 -36
93 -42 4 -7 8 -34 8 -59 l0 -46 -52 -7 c-29 -3 -74 -6 -100 -6 -27 0 -87 -7
-135 -15 -90 -15 -380 -45 -440 -45 -18 0 -33 4 -33 8 0 10 65 42 83 42 7 0
92 38 188 85 95 47 191 88 212 91 20 4 40 11 43 15 9 15 47 9 133 -21z m-2013
-51 c17 -24 40 -45 51 -47 19 -3 20 -12 27 -185 4 -110 2 -206 -4 -242 -5 -33
-10 -82 -10 -109 l0 -49 -52 7 c-29 4 -100 9 -158 13 l-106 6 4 306 3 306 53
-2 c50 -3 54 -1 60 21 4 17 14 26 34 28 43 6 65 -6 98 -53z m664 46 c8 -9 10
-27 6 -46 -3 -17 -1 -39 4 -50 17 -30 91 -26 154 10 28 16 66 32 84 36 28 6
38 2 71 -28 21 -19 54 -38 72 -42 76 -15 70 12 67 -273 l-3 -257 -135 -6 c-74
-4 -190 -10 -257 -14 l-123 -8 0 347 0 346 24 0 c13 0 29 -7 36 -15z m1531
-61 c24 -8 87 -18 139 -20 103 -6 145 -17 155 -41 3 -9 4 -18 2 -20 -11 -10
-146 -15 -240 -8 l-107 7 0 49 c0 27 2 49 4 49 2 0 23 -7 47 -16z m-2609 -81
l127 -18 8 -65 c10 -85 10 -333 0 -390 l-7 -45 -253 0 c-156 0 -255 4 -259 10
-4 6 -8 129 -8 274 l0 264 133 -6 c72 -4 189 -14 259 -24z m-422 -140 c5 -215
5 -214 -4 -332 -9 -101 -8 -103 12 -97 19 6 20 1 27 -91 3 -54 11 -120 17
-148 5 -27 12 -76 15 -107 l5 -58 -40 0 c-35 0 -43 5 -60 33 -11 17 -24 46
-28 62 -17 72 -91 211 -130 244 -21 18 -119 72 -216 119 l-177 87 -1 47 c0 26
-5 68 -12 93 -7 24 -9 47 -5 51 3 4 24 -1 47 -10 47 -19 122 -21 153 -5 58 30
67 48 67 133 0 128 -6 122 113 118 57 -2 118 1 137 6 80 23 76 31 80 -145z
m-1031 2 c55 -29 92 -59 152 -124 l80 -86 -78 -7 c-111 -9 -241 -56 -442 -159
-98 -50 -223 -105 -285 -125 -60 -20 -138 -53 -172 -73 -34 -21 -88 -46 -119
-56 -51 -16 -62 -16 -108 -3 l-52 14 3 39 c6 84 20 114 62 135 43 22 54 37 63
88 15 76 -27 132 -99 132 -16 0 -35 5 -42 12 -18 18 -14 117 7 164 30 67 61
84 150 84 48 0 87 6 105 15 39 21 108 19 191 -5 104 -30 141 -27 229 19 41 21
87 48 102 58 l27 20 77 -52 c42 -29 109 -69 149 -90z m4162 60 c3 -22 14 -76
23 -120 14 -66 16 -106 11 -226 -7 -144 -8 -146 -30 -141 -22 4 -118 -38 -130
-58 -3 -5 -9 -10 -13 -10 -4 0 -7 135 -8 300 l-1 301 71 -3 71 -3 6 -40z m312
5 c-13 -33 -14 -47 -5 -78 19 -63 85 -157 121 -172 43 -17 51 -43 51 -154 0
-111 -10 -128 -63 -107 -52 21 -76 24 -92 11 -8 -7 -26 -9 -44 -5 -28 6 -30
10 -45 93 -9 48 -17 146 -17 217 l-2 130 -9 -80 c-5 -44 -7 -142 -5 -217 4
-116 2 -138 -11 -143 -8 -3 -20 -1 -25 4 -5 5 -13 112 -18 238 -4 125 -11 242
-14 260 -5 30 -4 32 27 36 18 2 63 5 100 5 l66 2 -15 -40z m549 23 l88 -17 0
-85 c0 -90 33 -457 53 -603 l13 -86 -36 -6 c-19 -3 -101 -8 -182 -12 l-148 -7
0 132 c0 127 1 131 19 121 28 -15 61 -12 67 5 10 25 65 17 141 -19 67 -32 83
-35 83 -14 0 15 -122 67 -173 74 -40 6 -50 4 -62 -12 -13 -18 -16 -18 -42 -4
-27 15 -28 19 -34 115 -7 108 -4 117 67 245 30 54 28 116 -5 161 l-22 29 42 0
c23 0 82 -8 131 -17z m-1038 -24 c8 -41 8 -513 0 -573 l-7 -46 -47 0 -48 0 -7
84 c-4 47 -5 120 -1 163 3 43 9 149 12 235 l7 157 36 4 c20 2 39 4 42 5 4 1 9
-12 13 -29z m280 9 c10 -18 15 -80 19 -258 3 -129 7 -242 9 -250 2 -10 -7 -16
-28 -18 l-32 -3 -4 183 c-4 150 -9 195 -27 248 -32 100 -29 120 20 120 19 0
33 -8 43 -22z m-412 -75 c2 -82 -3 -546 -6 -549 0 -1 -24 -5 -52 -9 -44 -6
-52 -4 -60 12 -4 10 -11 142 -15 293 -4 151 -9 286 -10 299 -5 29 18 38 94 40
l47 1 2 -87z m-168 30 c3 -21 6 -94 6 -163 1 -69 5 -192 10 -275 4 -82 5 -153
1 -157 -11 -12 -116 -21 -163 -14 l-43 6 0 310 0 309 70 9 c116 16 112 17 119
-25z m1525 -50 c8 -49 17 -169 22 -268 4 -100 14 -209 23 -245 9 -36 16 -86
16 -112 0 -46 0 -46 -34 -45 l-33 1 -11 90 c-11 85 -32 345 -47 569 l-7 97 29
0 c28 0 29 -1 42 -87z m233 -70 c-3 -102 0 -179 8 -218 7 -33 15 -121 19 -195
5 -75 13 -145 19 -157 6 -11 8 -23 5 -27 -3 -3 -48 -6 -98 -6 l-92 0 -6 73
c-4 39 -14 97 -23 127 -13 40 -17 88 -16 179 1 69 -5 176 -13 238 -8 63 -15
121 -15 129 0 11 20 14 108 14 l109 0 -5 -157z m-6484 122 c2 -2 -8 -20 -23
-40 -22 -33 -25 -48 -25 -124 0 -104 9 -120 74 -132 27 -5 55 -14 62 -20 28
-23 11 -119 -21 -119 -33 0 -66 -46 -86 -120 -12 -41 -24 -78 -28 -82 -10 -11
-119 17 -141 37 -19 17 -25 45 -35 150 -3 33 -8 73 -11 88 -5 23 1 34 30 63
41 40 43 47 50 174 2 52 9 107 14 121 10 26 11 26 74 16 34 -5 64 -11 66 -12z
m4501 -449 l1 -158 -47 6 c-27 4 -65 14 -85 23 -36 15 -38 19 -39 62 -3 86 -6
116 -18 156 -6 22 -11 112 -11 202 l0 162 93 3 92 3 6 -150 c4 -82 7 -221 8
-309z m-5309 280 c47 -8 126 -18 176 -21 l92 -7 6 -30 c10 -49 7 -102 -10
-213 l-16 -103 -170 -7 c-213 -9 -206 -13 -188 112 9 68 10 105 1 160 -16 106
-15 136 7 129 9 -3 55 -12 102 -20z m545 -4 c42 -6 50 -11 55 -32 5 -20 -1
-32 -32 -61 -35 -33 -38 -40 -38 -91 0 -55 0 -56 -34 -62 -18 -4 -71 -29 -116
-56 -46 -28 -84 -50 -85 -50 -3 0 6 297 11 318 4 19 11 22 47 22 23 0 49 5 57
10 17 11 61 11 135 2z m3020 -267 c-26 -9 -105 -12 -105 -4 0 5 26 9 58 8 31
0 53 -2 47 -4z m-132 -11 c3 -3 -6 -16 -21 -29 -27 -23 -27 -24 -27 -159 0
-117 2 -138 18 -153 16 -16 39 -18 225 -18 205 0 207 0 247 26 65 41 69 43 61
30 -13 -20 -35 -185 -26 -194 4 -5 14 1 23 13 16 23 21 20 31 -22 10 -42 30
-35 23 7 -5 33 -4 35 23 35 22 0 29 -5 32 -22 4 -27 25 -35 30 -11 3 14 8 11
21 -14 10 -18 22 -33 27 -33 14 0 14 0 -22 101 -35 102 -35 103 40 114 58 9
139 -3 146 -21 4 -9 21 -14 50 -14 41 0 45 -2 48 -27 4 -32 6 -33 232 -33 93
0 184 -2 202 -6 31 -6 34 -9 34 -43 0 -46 14 -71 31 -54 10 10 10 36 0 120 -6
59 -15 172 -18 251 l-6 142 46 0 46 0 -2 -232 c-2 -233 5 -288 34 -288 11 0 8
42 -7 98 -6 21 -5 22 20 12 66 -25 156 -4 156 36 0 7 6 16 13 21 6 4 224 11
482 16 259 4 554 10 658 13 l187 5 0 -171 c0 -129 -3 -170 -12 -170 -7 0 -62
-20 -122 -45 -60 -24 -130 -47 -155 -51 -25 -4 -58 -13 -73 -20 -15 -8 -47
-14 -72 -14 -25 0 -69 -9 -98 -20 -29 -11 -73 -20 -98 -20 -61 0 -301 -36
-366 -55 -29 -8 -81 -29 -116 -45 -35 -17 -77 -30 -94 -30 -18 0 -63 -10 -100
-21 -42 -13 -116 -24 -189 -29 -66 -5 -143 -15 -171 -24 -29 -9 -107 -27 -175
-41 -68 -14 -162 -37 -207 -51 -113 -34 -123 -32 -145 36 -23 68 -29 74 -98
94 -81 23 -85 31 -70 127 12 69 11 82 -2 103 -19 29 -64 41 -115 31 -78 -15
-90 -43 -52 -128 18 -40 19 -52 9 -92 -16 -62 -25 -63 -20 -2 5 76 -12 120
-54 140 -84 40 -110 12 -103 -109 5 -69 1 -113 -21 -262 -15 -103 16 -291 62
-374 l21 -38 -31 -37 c-45 -56 -62 -54 -103 14 -19 31 -62 84 -95 118 -51 50
-69 79 -114 180 -30 66 -74 155 -97 197 -24 43 -44 83 -44 90 0 6 -60 71 -133
143 -151 147 -227 243 -300 382 l-50 96 274 -7 c280 -8 349 -2 320 27 -9 9
-76 12 -257 10 l-244 -2 0 34 c0 19 -4 45 -10 59 -13 35 -43 294 -35 306 7 11
487 14 498 4z m965 -71 c-39 -75 -40 -81 -36 -155 5 -76 4 -78 -19 -78 l-23 0
0 149 0 150 48 4 c26 2 52 4 59 5 6 1 -7 -33 -29 -75z m235 55 c9 -5 28 -31
42 -58 13 -27 30 -52 35 -55 24 -15 23 9 -1 55 l-26 48 71 4 c39 2 74 2 79 0
4 -2 7 -86 7 -188 l0 -185 -210 3 c-228 3 -259 10 -210 48 14 11 21 20 15 21
-5 1 -17 2 -25 3 -12 1 -16 19 -18 82 -4 126 40 224 108 237 32 6 110 -3 133
-15z m467 -4 c0 -23 -2 -25 -15 -14 -24 20 -30 3 -9 -26 50 -69 54 -85 54
-206 0 -140 -7 -154 -77 -144 -81 11 -83 13 -83 129 0 56 3 138 6 183 l7 81
41 10 c69 17 76 16 76 -13z m-1260 1 c63 -4 118 -29 125 -57 3 -13 5 -61 3
-107 l-3 -84 -67 -23 c-125 -42 -452 -70 -477 -40 -13 16 -20 230 -8 263 4 12
23 27 42 33 46 15 219 29 285 23 30 -3 75 -7 100 -8z m440 -135 l0 -150 -74 0
c-40 0 -88 -3 -105 -6 -28 -6 -31 -4 -31 20 0 23 -4 26 -35 26 l-35 0 0 89 c0
108 -10 138 -52 156 -30 13 -17 14 150 15 l182 0 0 -150z m2183 96 l27 -1 0
-116 0 -116 -162 -7 c-90 -3 -181 -10 -203 -15 -22 -5 -85 -12 -141 -16 l-101
-7 -14 84 c-20 116 -17 128 44 163 49 28 57 30 150 27 63 -1 108 2 130 11 22
9 46 11 76 5 31 -5 51 -3 70 6 22 12 31 12 61 -2 19 -8 47 -16 63 -16z m-1208
-115 c54 -14 93 -18 170 -15 97 4 121 7 214 20 36 5 47 3 58 -12 10 -14 16
-15 25 -6 7 7 31 12 54 12 l41 0 6 -47 c3 -27 9 -63 13 -80 l7 -33 -341 0
-341 0 -3 90 c-3 104 -9 100 97 71z m-1201 -120 c3 -4 -1 -17 -9 -27 -8 -10
-15 -40 -15 -66 l0 -48 -45 0 c-42 0 -45 2 -45 28 0 44 19 101 38 111 21 13
69 14 76 2z m36 -506 c10 -12 10 -30 0 -89 -7 -41 -10 -85 -7 -98 8 -30 61
-64 113 -73 45 -7 56 -20 77 -95 10 -34 18 -46 37 -50 19 -4 26 -13 28 -39 3
-24 11 -37 33 -49 16 -10 31 -24 34 -33 3 -9 -9 -49 -26 -90 -17 -41 -46 -108
-63 -150 l-32 -77 -50 38 c-80 62 -141 90 -196 90 -50 0 -110 -20 -139 -46
-15 -13 -18 -11 -33 19 -47 100 -64 262 -41 392 13 68 16 123 12 184 -6 102 0
120 37 103 25 -11 25 -11 20 -119 -3 -59 -10 -134 -16 -165 -12 -63 -7 -88 17
-88 11 0 30 30 55 83 71 151 82 225 49 305 -13 31 -12 35 5 48 26 18 70 18 86
-1z m-775 -272 c79 -90 95 -119 157 -286 39 -104 47 -117 109 -179 38 -36 79
-88 92 -115 14 -26 58 -82 98 -123 41 -41 96 -111 123 -155 27 -44 62 -96 78
-116 l28 -37 0 -273 c0 -215 4 -303 19 -409 44 -308 41 -331 -44 -385 -29 -19
-86 -72 -126 -119 -54 -62 -97 -100 -157 -138 -46 -29 -99 -66 -119 -82 -41
-34 -49 -28 -58 44 -3 25 -28 92 -55 150 -56 121 -64 146 -85 256 -8 44 -31
127 -50 184 -19 57 -35 120 -35 140 0 20 -7 59 -15 86 -9 27 -20 99 -25 159
-5 61 -24 184 -40 275 -17 91 -35 226 -40 300 -5 74 -16 164 -24 200 -9 36
-19 112 -22 170 -4 58 -12 108 -18 112 -7 4 -12 54 -14 125 -3 92 0 128 13
163 9 25 19 89 22 143 l6 99 55 -54 c30 -29 87 -90 127 -135z m-203 -561 c9
-48 22 -157 28 -242 11 -163 44 -404 61 -455 6 -16 14 -76 19 -132 5 -56 16
-125 24 -154 9 -29 16 -68 16 -86 0 -18 15 -82 34 -141 19 -59 37 -130 40
-158 11 -87 56 -225 101 -309 38 -69 64 -153 69 -220 1 -23 -40 -41 -77 -31
-14 3 -42 24 -63 46 -25 26 -84 63 -169 107 -115 59 -139 76 -210 148 -72 74
-175 159 -274 224 -54 37 -137 125 -221 236 -41 55 -105 132 -141 171 -67 72
-142 187 -154 235 -5 20 -1 27 17 36 13 6 62 39 108 75 47 35 120 84 164 108
101 55 134 85 203 183 54 76 202 231 276 289 19 15 54 58 78 96 24 38 46 68
49 65 3 -2 13 -43 22 -91z m1007 47 c79 -44 141 -97 141 -120 0 -23 1 -23 -41
-5 -19 7 -55 17 -81 20 -52 8 -211 69 -215 83 -3 8 40 31 87 47 32 10 56 5
109 -25z m-134 -103 c44 -19 109 -40 145 -46 96 -17 105 -25 139 -138 37 -120
45 -162 34 -162 -21 0 -106 65 -153 117 -53 58 -72 67 -257 128 -51 17 -83 33
-83 43 0 10 76 92 86 92 4 0 44 -15 89 -34z m26 -186 c25 0 87 -46 166 -121
39 -38 87 -76 106 -84 34 -14 36 -17 43 -82 7 -68 0 -208 -13 -253 -5 -20 -10
-7 -24 60 -21 106 -51 186 -92 247 -26 39 -41 51 -77 61 -25 7 -55 16 -66 20
-17 5 -123 134 -159 192 -3 5 18 -2 47 -15 29 -14 60 -25 69 -25z m120 -225
c46 -30 102 -170 113 -282 5 -52 3 -63 -9 -63 -8 0 -15 -7 -15 -15 0 -8 6 -15
13 -15 8 0 18 -20 25 -47 10 -44 9 -51 -12 -83 -43 -66 -76 -140 -113 -253
l-37 -112 -7 55 c-20 149 -48 807 -35 828 6 10 52 3 77 -13z m-1471 -1072
c-90 -255 -134 -441 -176 -746 l-17 -128 -18 28 c-48 73 -60 232 -34 482 17
171 35 468 35 585 0 46 3 85 6 89 4 3 58 -46 120 -110 l113 -117 -29 -83z"/>
</g>
</svg>
