<?xml version="1.0" standalone="no"?>
<!DOCTYPE svg PUBLIC "-//W3C//DTD SVG 20010904//EN"
 "http://www.w3.org/TR/2001/REC-SVG-20010904/DTD/svg10.dtd">
<svg version="1.0" xmlns="http://www.w3.org/2000/svg"
 width="501.000000pt" height="633.000000pt" viewBox="0 0 501.000000 633.000000"
 preserveAspectRatio="xMidYMid meet">

<g transform="translate(0.000000,633.000000) scale(0.100000,-0.100000)"
fill="black
" stroke="none">
<path d="M2650 6034 c-37 -9 -149 -19 -260 -24 -195 -8 -326 -24 -494 -61
-104 -23 -111 -26 -177 -85 -28 -25 -62 -49 -75 -54 -13 -5 -24 -15 -24 -21 0
-20 -161 -189 -229 -240 -114 -86 -281 -231 -281 -245 0 -32 -138 -260 -172
-284 -10 -8 -71 -119 -113 -206 -49 -103 -58 -150 -50 -284 9 -143 22 -192 79
-304 53 -103 53 -103 34 -353 -12 -162 -12 -163 -36 -163 -29 0 -78 -50 -103
-105 -12 -26 -19 -64 -19 -106 0 -89 36 -471 56 -583 44 -259 155 -446 263
-446 l38 0 6 -51 c4 -28 2 -60 -3 -70 -24 -43 3 -246 52 -397 24 -75 97 -160
190 -221 l60 -39 4 -150 c2 -83 11 -197 20 -254 9 -57 22 -143 30 -193 22
-144 19 -210 -15 -280 -15 -33 -51 -89 -80 -124 -28 -35 -51 -67 -51 -72 0
-18 29 -9 35 11 3 11 25 39 47 62 44 45 79 113 99 190 11 39 9 74 -9 230 -23
192 -46 492 -40 530 3 20 10 16 63 -42 162 -174 185 -192 185 -140 0 28 -179
210 -261 265 -109 73 -187 142 -208 183 -47 93 -85 311 -75 436 4 45 1 96 -9
140 -10 51 -12 78 -4 103 7 24 6 68 -4 156 -15 135 -16 277 -4 467 10 158 -17
358 -62 463 -19 45 -47 51 -41 9 l4 -29 -44 31 -44 31 6 115 c3 63 9 151 12
195 3 44 2 96 -3 115 -13 47 8 105 94 271 50 97 64 132 55 141 -8 8 -15 8 -28
-3 -30 -24 -133 -188 -151 -240 -10 -27 -20 -49 -23 -49 -11 0 -38 66 -51 125
-7 33 -13 121 -13 195 -1 127 1 138 26 194 21 44 82 153 103 184 1 1 31 -5 66
-14 49 -13 87 -15 164 -10 55 3 110 9 122 12 21 6 21 4 -8 -51 -23 -41 -33
-75 -38 -128 l-6 -72 -50 64 c-34 43 -49 71 -47 87 6 42 -29 28 -93 -39 -33
-35 -75 -90 -94 -121 -77 -128 -126 -296 -87 -296 22 0 32 19 64 125 34 110
65 164 135 240 l47 50 60 -65 c68 -74 71 -90 46 -222 -19 -96 -27 -115 -86
-205 -51 -77 -58 -97 -40 -108 15 -9 54 38 94 115 52 98 79 226 80 375 1 117
2 122 36 184 18 35 61 91 94 126 50 51 81 72 169 114 106 51 274 111 310 111
10 0 51 14 90 32 46 20 102 35 155 41 l82 10 83 -41 c59 -29 108 -65 176 -127
51 -48 110 -94 130 -102 44 -19 283 -21 349 -4 25 7 136 13 272 14 l229 2 45
-44 c32 -31 54 -65 72 -112 27 -72 76 -148 97 -150 6 -1 17 -1 24 0 7 1 30
-16 51 -37 28 -28 50 -67 80 -143 51 -130 58 -158 73 -294 6 -60 16 -121 21
-135 12 -30 27 -186 35 -364 4 -94 0 -166 -12 -260 -22 -165 -23 -235 -6 -472
10 -152 11 -209 1 -275 -6 -46 -15 -165 -20 -264 -11 -257 -55 -420 -166 -617
-30 -53 -54 -100 -54 -106 0 -14 -118 -188 -183 -269 -30 -38 -83 -95 -118
-127 -45 -40 -60 -59 -52 -67 8 -8 17 -8 31 0 37 20 170 172 239 273 37 55 87
120 109 144 69 73 182 355 219 545 9 46 19 132 22 190 l6 106 62 -1 c58 -1 65
2 117 42 69 53 100 98 128 182 11 36 24 72 27 80 4 8 8 24 9 35 2 11 17 67 34
125 31 104 52 187 71 287 5 28 11 109 12 180 2 115 -1 134 -22 188 -28 68 -69
115 -102 115 -12 0 -31 7 -41 16 -16 16 -23 15 -90 -9 -40 -14 -74 -24 -75
-23 -2 2 6 43 17 92 12 49 25 143 31 209 5 66 14 152 20 190 28 182 17 666
-20 840 -26 125 -78 276 -117 340 -46 77 -148 198 -193 229 -21 15 -105 51
-187 80 -110 40 -150 59 -155 74 -6 15 -23 23 -66 31 -127 24 -189 42 -350
102 -157 57 -175 61 -268 65 -67 2 -122 -2 -165 -12z m385 -83 c66 -24 179
-62 250 -84 72 -22 142 -50 157 -62 15 -13 76 -36 145 -55 142 -39 200 -67
265 -127 55 -52 135 -158 166 -219 29 -57 78 -229 98 -339 21 -122 32 -666 15
-745 -7 -30 -17 -115 -22 -187 -7 -113 -15 -152 -50 -260 -23 -71 -45 -132
-49 -137 -14 -14 -20 28 -39 264 -5 58 -16 132 -24 165 -8 33 -18 85 -21 116
-5 50 -4 57 13 62 52 13 110 372 61 372 -10 0 -18 -16 -23 -50 -18 -115 -48
-268 -54 -278 -3 -5 -16 23 -28 64 -56 191 -91 248 -218 351 -40 33 -48 46
-63 108 -15 58 -27 79 -71 127 -29 32 -52 60 -51 63 18 38 156 247 187 282 41
47 50 71 30 84 -17 10 -48 -27 -167 -201 l-110 -160 -204 -2 c-111 -1 -221 -6
-243 -12 -52 -14 -271 -26 -317 -17 -30 5 -40 14 -58 49 -12 23 -39 65 -59 92
-49 65 -84 128 -107 190 -14 37 -41 73 -109 141 -95 97 -131 119 -289 182 -84
33 -99 36 -187 35 -98 -1 -142 -13 -133 -36 3 -10 35 -13 122 -13 116 1 118 0
216 -42 115 -50 133 -61 204 -120 58 -49 115 -128 156 -218 15 -33 42 -75 60
-94 89 -94 86 -121 -4 -36 -39 36 -91 76 -118 90 -72 36 -191 76 -197 67 -3
-5 -29 -15 -57 -21 -29 -7 -93 -28 -141 -46 -91 -35 -126 -41 -142 -25 -6 5
-67 27 -137 50 -126 42 -164 63 -247 138 l-44 39 50 37 c27 20 85 77 128 127
43 50 98 103 122 117 24 14 43 30 43 36 0 19 68 68 119 87 88 33 318 59 541
61 83 0 152 7 205 19 58 14 112 18 195 16 108 -2 123 -5 235 -45z m-1650 -490
c14 -44 186 -148 333 -201 34 -13 61 -24 60 -25 -2 -2 -37 -17 -79 -34 -53
-22 -85 -30 -103 -25 -14 3 -58 -2 -98 -12 -92 -23 -307 -26 -355 -5 -18 7
-33 15 -33 17 0 2 14 25 30 51 17 26 30 51 30 56 0 25 175 195 202 197 4 0 9
-9 13 -19z m-85 -357 c74 3 155 8 180 11 l45 6 -35 -20 c-19 -10 -55 -37 -80
-58 -39 -34 -56 -42 -125 -53 -116 -20 -222 -19 -263 3 l-33 18 45 58 46 59
42 -15 c34 -12 72 -14 178 -9z m3034 -1365 c44 -52 32 -64 -26 -24 -29 19 -60
35 -68 36 -22 1 20 17 47 18 12 1 32 -12 47 -30z m-233 -31 c-17 -18 -31 -41
-31 -50 0 -30 36 -20 64 17 24 31 32 35 71 35 52 0 62 -11 33 -36 -11 -11 -29
-37 -39 -59 -19 -43 -44 -224 -35 -253 5 -15 -3 -17 -79 -17 l-85 -1 1 71 c0
89 22 210 41 233 8 9 21 32 28 50 7 19 23 37 34 42 32 12 31 4 -3 -32z m-3157
-55 c4 -3 -11 -15 -35 -27 -38 -19 -50 -33 -86 -106 l-43 -85 0 74 c0 76 20
128 58 151 16 9 86 4 106 -7z m3415 -28 c23 -26 31 -45 31 -73 0 -72 -19 -258
-30 -302 l-11 -45 -66 65 -65 65 -2 85 c0 47 5 103 11 125 14 45 67 115 88
115 7 0 27 -16 44 -35z m-3358 -46 c7 -14 17 -19 30 -16 17 5 19 -1 19 -50 0
-30 7 -83 16 -117 17 -63 21 -198 8 -290 l-6 -48 -29 53 c-52 95 -101 130
-201 144 -48 7 -48 7 -48 46 0 22 6 50 14 62 8 12 17 42 21 67 9 57 25 87 67
126 51 49 90 57 109 23z m3159 -285 c22 -9 40 -22 40 -28 0 -7 -9 -53 -20
-103 -11 -50 -23 -123 -26 -162 l-7 -71 -39 -10 c-21 -6 -53 -24 -72 -40 -18
-17 -36 -30 -40 -30 -8 0 -6 354 3 405 5 34 11 41 36 46 52 11 83 9 125 -7z
m138 -84 c23 -17 42 -34 42 -38 0 -13 -40 -156 -56 -199 -15 -42 -17 -43 -60
-43 -25 0 -43 3 -41 8 3 4 17 73 32 155 15 81 31 147 35 147 4 0 26 -14 48
-30z m-3443 -57 c-9 -74 7 -161 45 -240 16 -35 27 -63 25 -63 -2 0 -23 9 -48
19 l-44 19 -12 79 c-7 43 -15 115 -18 161 l-6 82 32 0 32 0 -6 -57z m87 10
c14 -16 45 -66 69 -113 34 -68 45 -103 55 -175 6 -49 10 -92 8 -94 -11 -12
-78 49 -114 103 -38 59 -42 73 -50 158 -12 117 -12 148 -2 148 5 0 20 -12 34
-27z m3291 -318 c-6 -94 -43 -152 -118 -186 -52 -24 -145 -26 -145 -3 0 38 26
113 53 152 36 54 74 71 152 69 l60 -2 -2 -30z m-3322 -37 c19 -6 64 -32 102
-57 l67 -45 0 -52 c0 -87 -11 -144 -28 -144 -34 0 -83 44 -117 104 -29 51 -85
185 -85 201 0 8 26 5 61 -7z"/>
<path d="M2270 5921 c0 -5 9 -20 20 -33 16 -20 231 -318 309 -430 26 -37 61
-51 61 -25 0 42 -344 497 -375 497 -8 0 -15 -4 -15 -9z"/>
<path d="M2597 5880 c-13 -52 50 -269 100 -343 50 -73 267 -277 321 -301 69
-31 72 -23 72 173 0 148 3 173 24 233 13 36 33 80 46 98 24 34 20 63 -7 58
-22 -4 -71 -92 -89 -161 -8 -29 -17 -121 -21 -204 -3 -84 -8 -153 -11 -153 -3
0 -43 35 -88 78 -45 42 -111 104 -146 137 -79 73 -104 126 -129 263 -10 56
-23 111 -29 122 -14 26 -36 26 -43 0z"/>
<path d="M1710 5670 c0 -15 252 -325 267 -328 22 -6 14 32 -17 79 -57 87 -210
259 -231 259 -10 0 -19 -4 -19 -10z"/>
<path d="M3291 5625 c-48 -53 -56 -71 -81 -185 -14 -68 -15 -87 -5 -95 8 -7
11 -27 7 -63 -4 -43 -2 -53 13 -58 27 -11 36 15 30 86 -13 137 -10 172 17 225
15 28 40 63 57 79 17 17 31 36 31 43 0 25 -28 12 -69 -32z"/>
<path d="M3452 5513 c-30 -26 -182 -242 -182 -259 0 -25 41 -15 73 19 43 46
116 145 139 190 29 58 12 86 -30 50z"/>
<path d="M3898 5353 c-8 -10 -34 -52 -58 -93 -53 -93 -71 -114 -137 -157 -29
-18 -53 -38 -53 -43 0 -18 40 -21 71 -5 72 38 210 217 213 277 1 36 -14 46
-36 21z"/>
<path d="M3790 4839 c-19 -6 -41 -17 -49 -24 -13 -12 -12 -15 1 -20 9 -4 25
-2 37 4 51 28 135 8 216 -50 26 -19 50 -29 60 -25 29 11 -2 43 -78 80 -81 40
-135 50 -187 35z"/>
<path d="M3031 4209 c-115 -22 -197 -59 -256 -113 -38 -36 -56 -60 -53 -72 6
-33 37 -27 86 16 93 82 191 111 382 112 108 1 122 -1 219 -35 116 -41 133 -44
150 -23 63 76 -313 157 -528 115z"/>
<path d="M1582 4091 c-18 -5 -66 -21 -107 -36 -112 -41 -178 -116 -126 -144
15 -9 26 -3 57 28 22 21 66 49 99 62 52 21 76 24 180 23 144 0 236 -15 330
-55 78 -32 110 -36 119 -14 16 42 -102 102 -244 124 -96 15 -270 21 -308 12z"/>
<path d="M3233 3913 c-8 -20 -3 -23 73 -35 114 -17 218 -84 257 -164 22 -47
34 -54 44 -28 10 26 -26 82 -83 130 -60 51 -95 68 -205 93 -69 16 -81 17 -86
4z"/>
<path d="M3088 3902 c-1 -4 -65 -38 -140 -74 -90 -44 -138 -72 -138 -82 0 -26
35 -19 123 23 105 51 181 101 185 124 3 17 -23 25 -30 9z"/>
<path d="M1780 3887 c0 -8 57 -32 143 -60 147 -49 167 -54 167 -37 0 16 -41
37 -143 75 -102 36 -167 45 -167 22z"/>
<path d="M2564 3866 c-7 -18 65 -341 81 -363 15 -21 35 -8 35 21 0 13 -13 67
-30 121 -16 54 -30 116 -31 139 -1 22 -4 52 -8 66 -8 28 -38 39 -47 16z"/>
<path d="M1512 3770 c-35 -21 -69 -41 -75 -44 -8 -3 -8 -8 2 -15 27 -18 151
52 151 85 0 20 -8 17 -78 -26z"/>
<path d="M3135 3769 c-33 -11 -106 -42 -161 -69 -78 -38 -112 -61 -148 -101
-25 -28 -46 -57 -46 -64 0 -16 41 -32 105 -40 27 -4 76 -15 110 -26 78 -24
310 -36 375 -19 102 27 220 109 220 153 0 16 -5 18 -28 14 -22 -5 -30 -1 -37
16 -15 32 -125 112 -190 136 -69 26 -123 26 -200 0z m120 -55 c22 -54 18 -106
-12 -169 l-27 -55 -49 0 c-27 0 -46 4 -42 9 3 5 -6 26 -20 47 -30 44 -31 63
-8 127 16 43 22 49 63 62 69 21 78 19 95 -21z m130 -17 c18 -12 57 -44 85 -71
59 -55 60 -51 -44 -105 -39 -21 -73 -31 -102 -31 l-43 0 21 46 c15 36 19 61
16 108 -3 33 -8 69 -13 79 -6 15 -4 16 19 7 15 -5 42 -20 61 -33z m-347 -38
c-12 -33 1 -94 28 -136 13 -21 13 -23 -3 -23 -23 1 -201 44 -207 51 -15 14
151 138 186 139 4 0 2 -14 -4 -31z"/>
<path d="M3126 3677 c-26 -19 -24 -67 4 -89 29 -24 46 -23 64 4 25 35 20 73
-9 86 -33 15 -37 15 -59 -1z"/>
<path d="M1715 3761 c-42 -11 -67 -25 -177 -103 -94 -67 -114 -92 -84 -104 8
-3 12 -13 9 -22 -15 -58 169 -115 377 -116 92 0 115 4 192 31 48 16 110 45
137 62 92 60 80 91 -62 162 -157 79 -217 99 -295 98 -37 -1 -80 -4 -97 -8z
m173 -74 c38 -57 26 -143 -31 -204 -29 -33 -44 -29 -68 20 -12 23 -30 53 -40
66 -26 33 -24 48 14 103 28 42 36 48 67 48 28 0 39 -6 58 -33z m-168 16 c-1
-5 -7 -19 -15 -33 -22 -39 -18 -101 10 -155 l26 -47 -33 5 c-18 3 -55 11 -83
17 -27 7 -60 14 -72 16 -12 2 -34 14 -48 27 l-25 22 60 50 c54 44 152 104 173
105 4 0 7 -3 7 -7z m379 -78 c38 -19 72 -39 76 -45 3 -5 -9 -19 -27 -30 -41
-24 -192 -80 -219 -80 -19 0 -19 0 1 37 29 55 34 96 17 147 l-15 45 49 -19
c27 -11 80 -35 118 -55z"/>
<path d="M1784 3653 c-6 -5 -16 -18 -23 -31 -18 -33 9 -72 48 -72 42 0 72 52
47 84 -13 18 -57 29 -72 19z"/>
<path d="M2876 3423 c-17 -18 -3 -45 32 -61 52 -24 501 -25 546 -2 16 8 27 20
25 25 -5 12 -14 11 -167 -5 -153 -17 -361 -2 -402 28 -15 12 -30 18 -34 15z"/>
<path d="M1456 3391 c-12 -18 26 -33 116 -47 111 -17 424 -19 465 -3 27 10 28
11 8 26 -16 12 -39 13 -125 7 -158 -10 -290 -7 -364 10 -77 18 -93 19 -100 7z"/>
<path d="M2385 3154 c-63 -136 -128 -230 -175 -254 -46 -23 -73 -60 -106 -140
-43 -106 -31 -144 55 -175 59 -21 81 -19 81 5 0 14 -11 22 -42 31 -24 7 -49
17 -55 22 -21 16 -15 51 17 98 16 24 30 49 30 56 0 7 16 20 35 29 51 24 149
134 184 206 36 77 66 181 58 202 -15 37 -39 14 -82 -80z"/>
<path d="M2653 3193 c-7 -17 25 -118 60 -188 25 -52 71 -115 128 -179 82 -90
106 -157 74 -200 -22 -28 -19 -56 5 -56 19 0 60 63 60 93 0 8 -25 55 -55 105
-30 50 -55 98 -55 106 0 8 -16 27 -35 42 -42 31 -79 91 -101 160 -34 106 -46
134 -60 134 -8 0 -18 -8 -21 -17z"/>
<path d="M2345 2714 c-16 -13 -36 -29 -43 -35 -17 -14 -6 -29 22 -29 28 0 81
53 73 74 -8 21 -17 20 -52 -10z"/>
<path d="M2683 2714 c-6 -15 21 -41 60 -56 33 -14 34 22 1 49 -34 27 -52 29
-61 7z"/>
<path d="M2325 2243 c-202 -26 -356 -66 -396 -103 -36 -32 -32 -49 19 -82 20
-13 69 -45 107 -70 50 -32 98 -53 165 -71 195 -54 337 -58 462 -16 187 63 410
205 380 241 -22 27 -125 66 -229 87 -83 17 -134 21 -290 20 -103 -1 -201 -4
-218 -6z m495 -46 c105 -24 150 -37 150 -45 0 -4 -24 -14 -53 -24 -47 -15 -85
-15 -362 -8 -271 8 -511 24 -524 36 -10 9 95 46 152 54 98 14 560 4 637 -13z
m-680 -107 c52 -5 212 -10 355 -10 261 0 395 -7 395 -20 0 -4 -10 -11 -22 -17
-13 -6 -75 -35 -138 -64 l-115 -54 -95 2 c-138 2 -349 56 -462 118 -106 59
-116 70 -58 61 24 -4 87 -11 140 -16z"/>
<path d="M3724 1354 c-8 -30 2 -141 17 -199 6 -22 33 -94 61 -160 42 -102 58
-129 106 -178 l57 -58 3 -149 3 -149 -123 -123 c-143 -144 -176 -163 -438
-253 -91 -31 -176 -64 -190 -72 -24 -13 -23 -14 24 -9 102 12 382 122 482 190
22 14 89 75 149 134 61 59 148 137 195 173 47 36 119 98 161 137 l76 72 17
-45 c10 -24 46 -75 82 -114 64 -69 64 -70 42 -82 -12 -7 -90 -78 -173 -158
-82 -81 -181 -169 -220 -197 -38 -28 -90 -65 -114 -82 l-45 -32 30 0 c40 0
180 108 344 265 123 117 211 195 223 195 3 0 32 -17 64 -38 63 -42 290 -170
391 -221 l62 -31 0 24 c0 21 -15 33 -104 81 -58 31 -131 67 -163 80 -105 42
-227 118 -283 174 -34 35 -72 88 -98 139 -24 45 -45 82 -48 82 -2 0 -44 -9
-93 -20 -117 -26 -217 -19 -225 16 -3 12 -28 48 -55 80 -28 32 -58 79 -67 104
-9 25 -34 79 -55 121 -40 81 -65 190 -55 240 13 66 -25 125 -40 63z m494 -700
c-27 -38 -189 -173 -208 -174 -5 0 -1 191 4 197 3 4 157 20 199 22 l38 1 -33
-46z"/>
<path d="M2946 1170 c-128 -77 -198 -99 -345 -106 -171 -9 -286 7 -466 66
-163 54 -185 58 -185 35 0 -21 34 -40 135 -74 158 -52 275 -71 448 -71 186 0
232 8 351 60 129 57 200 101 204 128 6 37 -35 26 -142 -38z"/>
<path d="M1236 720 c-36 -27 -101 -67 -144 -88 -82 -41 -170 -101 -212 -147
-35 -38 -89 -60 -219 -90 -134 -31 -180 -46 -258 -84 -32 -16 -112 -46 -178
-66 -184 -58 -225 -75 -225 -96 0 -18 1 -18 33 0 17 11 100 40 182 66 83 26
175 60 205 76 42 22 286 95 400 121 26 5 23 -44 -9 -164 -16 -62 -32 -143 -36
-180 -6 -64 -5 -68 14 -68 15 0 21 6 21 23 0 12 9 58 20 102 11 44 27 132 36
195 14 105 18 118 47 148 28 30 76 62 92 62 3 0 5 -44 5 -99 0 -186 86 -431
153 -431 20 0 20 1 -5 27 -33 36 -72 114 -92 183 -18 67 -29 246 -19 319 l8
55 80 48 c43 26 80 46 82 45 1 -2 -5 -26 -13 -55 -14 -47 -14 -57 -1 -97 9
-24 33 -70 55 -103 92 -134 242 -235 550 -368 98 -42 137 -54 176 -54 67 0 50
11 -89 55 -198 62 -447 197 -544 295 -69 69 -131 172 -131 218 0 45 22 93 64
140 35 39 45 62 27 62 -6 0 -39 -22 -75 -50z"/>
</g>
</svg>
