<?xml version="1.0" standalone="no"?>
<!DOCTYPE svg PUBLIC "-//W3C//DTD SVG 20010904//EN"
 "http://www.w3.org/TR/2001/REC-SVG-20010904/DTD/svg10.dtd">
<svg version="1.0" xmlns="http://www.w3.org/2000/svg"
 width="534.000000pt" height="467.000000pt" viewBox="0 0 534.000000 467.000000"
 preserveAspectRatio="xMidYMid meet">

<g transform="translate(0.000000,467.000000) scale(0.100000,-0.100000)"
fill="#000000" stroke="none">
<path d="M4584 3806 c-40 -13 -123 -29 -185 -35 -118 -13 -267 -55 -404 -113
-38 -17 -92 -38 -120 -48 -27 -9 -72 -31 -99 -49 -47 -29 -55 -31 -150 -31
-57 0 -121 6 -150 15 -28 8 -93 26 -145 39 -51 14 -107 34 -125 45 -47 29
-299 93 -401 101 -49 4 -119 13 -155 20 -134 25 -232 -5 -468 -144 -51 -30
-103 -58 -115 -62 -12 -3 -36 -15 -53 -25 -17 -10 -65 -30 -105 -43 -41 -13
-114 -45 -162 -71 -103 -55 -171 -66 -258 -42 -30 8 -79 18 -109 21 -30 4 -86
15 -125 26 -38 10 -99 21 -135 25 -36 3 -103 19 -150 35 -47 15 -107 31 -135
35 -27 4 -76 17 -110 30 -33 13 -91 32 -130 43 -38 11 -79 23 -90 27 -18 7
-18 6 -5 -8 8 -9 51 -25 96 -35 44 -11 94 -26 110 -35 16 -8 69 -22 119 -32
49 -9 94 -20 100 -25 16 -13 134 -43 200 -50 54 -7 224 -40 361 -71 64 -14
170 -8 209 13 17 8 55 30 86 47 31 17 90 42 132 56 77 25 229 99 322 157 28
17 95 51 149 76 l99 45 99 -6 c77 -4 104 -9 120 -23 12 -11 18 -14 14 -7 -5 9
3 12 28 11 19 -1 34 -6 33 -12 -1 -6 4 -10 12 -8 7 1 21 -3 30 -10 14 -12 15
-11 2 5 -8 10 -20 16 -28 13 -8 -3 -11 -1 -8 4 10 16 24 12 70 -20 24 -16 46
-30 49 -30 11 0 -29 35 -54 47 -34 16 -1 17 37 1 15 -6 32 -10 36 -9 19 4 192
-50 210 -66 11 -10 17 -12 12 -4 -10 18 34 5 55 -16 13 -14 4 -15 -88 -9 -57
3 -113 12 -125 18 -12 7 -29 13 -38 14 -38 3 -89 16 -89 22 0 4 -44 9 -97 10
-117 4 -153 -8 -228 -75 -27 -25 -76 -64 -107 -86 -32 -22 -56 -43 -54 -45 3
-2 17 5 33 16 15 10 48 32 72 48 24 16 58 44 75 62 66 72 177 92 300 53 95
-30 152 -40 286 -51 166 -14 271 -34 364 -70 15 -5 66 -10 114 -10 83 -1 91 1
177 44 106 53 275 126 292 126 6 0 44 12 85 26 80 28 127 38 263 54 76 9 245
55 245 66 0 8 -28 2 -96 -20z"/>
<path d="M3000 3660 c8 -5 20 -10 25 -10 6 0 3 5 -5 10 -8 5 -19 10 -25 10 -5
0 -3 -5 5 -10z"/>
<path d="M3036 3641 c-3 -3 3 -7 12 -8 9 0 28 -4 41 -7 18 -4 22 -3 13 6 -13
13 -60 20 -66 9z"/>
<path d="M3151 3550 c0 -8 4 -22 9 -30 12 -18 12 -2 0 25 -6 13 -9 15 -9 5z"/>
<path d="M3215 3530 c9 -16 18 -30 21 -30 2 0 -2 14 -11 30 -9 17 -18 30 -21
30 -2 0 2 -13 11 -30z"/>
<path d="M3260 3551 c0 -5 7 -15 17 -22 15 -13 15 -12 4 9 -12 23 -21 28 -21
13z"/>
<path d="M3431 3480 c0 -30 37 -143 38 -117 1 12 6 16 14 11 6 -4 3 2 -7 14
-11 12 -25 43 -32 69 -8 29 -13 38 -13 23z"/>
<path d="M3367 3454 c18 -22 40 -47 50 -55 10 -8 3 4 -14 27 -18 22 -40 47
-50 55 -10 8 -3 -4 14 -27z"/>
<path d="M3476 3482 c-8 -13 38 -105 63 -125 8 -6 5 3 -8 21 -13 19 -29 52
-36 75 -7 24 -15 36 -19 29z"/>
<path d="M3310 3471 c0 -6 4 -13 10 -16 6 -3 7 1 4 9 -7 18 -14 21 -14 7z"/>
<path d="M3520 3461 c0 -6 4 -13 10 -16 6 -3 7 1 4 9 -7 18 -14 21 -14 7z"/>
<path d="M2274 3417 c-44 -23 -94 -52 -111 -64 -17 -13 -34 -23 -37 -23 -14 0
-122 -95 -135 -119 -8 -14 -19 -31 -26 -37 -15 -15 -26 -44 -65 -174 -47 -155
-61 -186 -103 -238 -52 -62 -87 -134 -87 -175 0 -24 9 -44 33 -69 38 -43 80
-58 156 -58 32 0 62 -5 69 -12 7 -7 12 -8 12 -2 0 8 59 37 80 39 3 0 25 12 50
26 57 33 96 46 85 29 -6 -9 -4 -11 4 -6 7 5 10 10 7 13 -3 4 38 51 92 107 82
86 100 110 115 158 21 66 57 102 162 160 68 38 154 61 196 52 87 -18 117 -30
144 -54 17 -15 50 -38 75 -50 25 -12 63 -39 85 -60 22 -21 81 -59 130 -85 50
-26 99 -55 110 -65 32 -29 146 -91 195 -106 25 -7 76 -34 115 -59 38 -26 110
-66 160 -91 49 -24 117 -60 149 -79 32 -20 78 -40 102 -46 39 -10 44 -15 50
-48 4 -20 13 -51 21 -69 12 -30 11 -36 -18 -93 -16 -34 -33 -59 -35 -56 -3 3
0 15 6 27 7 12 8 20 2 16 -5 -3 -15 -20 -23 -38 -16 -40 -29 -50 -46 -36 -9 7
-13 7 -13 0 0 -18 -30 -42 -52 -42 -14 0 -18 5 -14 16 3 9 2 12 -5 9 -5 -4 -8
-12 -6 -18 5 -15 -66 -47 -104 -47 -29 0 -79 19 -79 30 0 3 6 12 13 20 6 8 3
7 -8 -2 -18 -15 -27 -16 -60 -6 -22 6 -59 24 -83 40 -24 15 -48 28 -54 28 -6
0 -5 7 3 17 13 15 12 15 -9 2 -20 -12 -27 -11 -65 8 -23 12 -68 32 -99 43 -62
23 -88 54 -108 130 -6 22 -15 40 -20 40 -15 0 24 -106 52 -141 12 -15 91 -52
211 -100 26 -11 64 -30 85 -43 20 -12 74 -35 119 -50 87 -29 87 -29 98 -108
11 -86 -49 -179 -147 -229 -46 -23 -66 -28 -93 -23 -19 3 -35 10 -35 14 0 5
-10 10 -22 13 -23 3 -23 3 2 14 42 18 166 93 154 93 -6 0 -53 -23 -103 -50
-68 -38 -95 -48 -108 -42 -10 6 -53 19 -96 31 -43 12 -101 33 -129 47 l-51 26
64 64 c34 35 65 62 67 59 2 -2 -15 -27 -39 -54 -23 -28 -40 -54 -36 -57 3 -3
10 3 16 14 5 10 26 38 46 61 60 73 26 67 -49 -8 l-71 -71 -50 19 c-63 24 -135
36 -135 23 0 -5 19 -12 43 -14 50 -6 159 -48 164 -64 2 -6 -10 -17 -27 -24
-17 -7 -33 -17 -36 -22 -3 -4 14 1 39 13 l44 22 81 -32 c45 -17 92 -31 104
-31 13 0 42 -9 66 -20 34 -15 42 -24 42 -45 0 -37 -23 -76 -69 -117 -38 -35
-42 -36 -120 -37 -57 0 -96 5 -129 18 l-47 19 33 18 c64 36 67 45 4 13 -51
-26 -67 -30 -85 -21 -12 5 -31 13 -42 17 -17 6 -14 10 25 30 25 13 41 24 35
24 -5 1 -28 -9 -50 -22 l-40 -23 -54 22 c-46 19 -51 23 -32 29 13 4 20 9 17
12 -3 3 -19 0 -35 -7 -37 -15 -58 -5 -39 18 11 14 9 14 -8 -1 -18 -15 -26 -15
-55 -5 -33 12 -34 12 -9 19 19 5 14 6 -18 6 -33 -1 -42 -5 -39 -17 2 -8 8 -14
14 -13 7 2 27 -4 45 -13 19 -8 23 -13 11 -11 -12 3 -28 -2 -34 -10 -7 -8 -21
-12 -30 -10 -10 3 -23 -1 -30 -9 -9 -11 -19 -9 -57 13 -36 21 -60 27 -104 28
-40 0 -58 4 -58 13 0 26 -5 33 -60 92 -21 22 -52 42 -75 49 -80 22 -180 7
-226 -35 -24 -22 -27 -18 -38 40 -10 56 -28 78 -88 106 -38 18 -59 21 -122 17
-42 -3 -100 -9 -128 -15 -43 -9 -64 -8 -117 7 -36 10 -78 26 -93 37 -15 10
-53 27 -83 37 -71 24 -211 103 -257 143 -51 45 -126 80 -213 98 -41 8 -88 20
-105 25 -16 5 -82 14 -145 20 -110 9 -197 30 -305 73 -79 31 -82 31 -52 4 15
-14 44 -28 65 -31 20 -4 64 -16 96 -26 33 -11 109 -24 170 -30 128 -11 174
-18 199 -31 10 -5 46 -14 80 -19 64 -11 106 -27 146 -58 l23 -18 -26 -64 c-15
-35 -29 -89 -32 -119 -5 -50 -2 -60 28 -105 32 -48 35 -50 96 -59 60 -9 65 -7
136 28 67 33 110 68 134 113 8 14 13 13 48 -5 21 -12 51 -24 65 -26 24 -5 27
-11 32 -69 3 -35 2 -95 -4 -133 -7 -48 -6 -76 2 -95 11 -29 65 -76 116 -102
40 -21 160 -23 208 -3 l34 15 25 -55 c14 -30 29 -54 34 -54 5 0 23 -13 40 -30
17 -16 43 -32 57 -36 45 -11 170 1 196 19 33 23 48 21 61 -9 17 -37 92 -84
134 -84 19 0 70 12 113 26 73 24 80 29 94 64 l14 37 58 -9 c32 -5 63 -12 69
-16 6 -3 20 -6 31 -7 11 0 19 -6 17 -13 -1 -6 2 -12 8 -12 5 0 10 8 11 18 0
11 2 12 6 4 3 -8 9 -9 16 -4 7 5 34 17 61 27 60 22 126 79 126 109 0 21 3 21
110 18 l109 -4 51 48 c41 39 52 58 57 89 l5 41 57 -1 c78 0 141 39 200 125 43
65 43 65 38 136 l-5 71 51 21 c29 11 63 23 77 27 45 12 106 45 127 68 27 28
73 115 73 136 0 9 -9 42 -20 74 -18 53 -18 62 -5 88 14 26 55 59 55 43 0 -3 6
-2 13 3 6 6 37 13 67 16 31 4 83 16 116 26 36 12 104 23 169 27 61 3 137 13
170 21 37 10 110 16 192 17 73 1 135 5 139 9 15 14 -260 7 -310 -8 -27 -8 -71
-15 -98 -15 -59 0 -269 -29 -283 -40 -5 -4 -44 -13 -85 -20 -82 -15 -144 -41
-153 -65 -6 -15 -51 -20 -80 -9 -13 5 -11 13 9 53 14 26 27 63 29 82 4 39 -2
29 -36 -63 -11 -32 -23 -58 -27 -58 -6 0 -86 46 -122 70 -8 6 -44 24 -80 41
-94 44 -163 84 -168 97 -2 7 -9 12 -17 12 -18 0 -114 44 -115 53 0 4 7 21 16
38 8 17 13 33 10 37 -3 3 -6 -1 -6 -9 0 -12 -2 -11 -11 1 -8 12 -9 10 -4 -9 5
-15 3 -21 -3 -17 -14 9 -23 -19 -9 -33 6 -6 8 -11 4 -11 -12 0 -161 82 -182
100 -11 10 -53 35 -93 56 -82 42 -162 107 -163 132 0 11 -2 13 -6 4 -6 -14
-79 23 -123 63 -14 13 -44 29 -67 36 -32 9 -43 17 -44 33 -1 17 -2 18 -6 4 -3
-13 -15 -18 -39 -18 l-34 0 0 88 c-1 67 -3 83 -11 68 -7 -12 -9 -43 -5 -87 l7
-68 -28 -7 c-47 -10 -97 -31 -152 -63 -28 -17 -54 -31 -57 -31 -9 0 -64 -66
-70 -85 -15 -49 -47 -115 -55 -115 -5 0 -15 12 -23 28 -20 36 -20 20 -1 -18
l15 -30 -81 -77 c-67 -65 -162 -131 -191 -133 -4 0 -9 19 -11 43 l-4 42 -1
-46 c-2 -41 -5 -48 -29 -57 -52 -20 -66 -19 -74 8 -7 25 -7 25 -8 -4 l-1 -29
-57 6 c-94 11 -126 23 -152 62 -31 45 -25 85 25 165 49 80 54 83 93 64 18 -9
35 -14 38 -11 2 3 -9 13 -26 22 -32 16 -37 25 -22 41 5 5 19 41 30 79 12 39
27 86 35 105 8 19 20 56 26 82 15 58 63 134 111 176 38 33 141 101 199 130 47
24 110 63 110 68 0 6 4 7 -86 -39z m-1034 -1407 c19 -15 56 -36 81 -48 25 -12
55 -31 66 -41 11 -11 23 -17 27 -14 3 3 13 0 22 -8 10 -8 18 -12 18 -10 1 2
11 1 24 -3 26 -9 24 -32 -2 -30 -13 2 -14 -1 -5 -12 21 -26 -76 -100 -158
-120 -22 -6 -24 -4 -19 22 l6 29 -12 -27 c-9 -22 -19 -28 -42 -28 -47 0 -76
20 -102 69 -18 35 -22 54 -17 85 9 61 55 176 67 169 6 -4 27 -18 46 -33z m747
-195 c34 -10 61 -26 78 -47 25 -29 27 -38 23 -102 -3 -57 -9 -80 -32 -115 -22
-34 -30 -41 -38 -30 -6 10 -7 6 -2 -11 7 -25 7 -25 -15 -6 -16 14 -18 22 -10
32 19 24 2 41 -45 46 -38 5 -55 14 -94 52 -60 58 -92 81 -92 65 0 -15 66 -75
115 -104 22 -13 58 -27 79 -31 l40 -7 -23 -18 c-60 -49 -156 -43 -188 11 -16
27 -33 39 -33 23 0 -13 51 -73 62 -73 7 0 26 -12 42 -27 17 -16 23 -18 13 -7
-18 22 -18 22 25 26 30 4 49 0 63 -11 19 -15 19 -15 5 2 -11 16 -12 20 0 27 9
6 19 1 32 -15 25 -32 23 -50 -9 -64 -40 -18 -143 -27 -143 -12 0 7 -9 9 -24 5
-28 -7 -55 6 -113 52 l-42 34 2 145 c1 104 5 145 14 145 19 0 25 -18 13 -40
-17 -32 3 -22 25 13 18 28 28 33 90 43 100 16 125 16 182 -1z m320 -112 c-3
-5 10 -8 29 -8 39 0 46 -17 12 -27 -13 -4 -2 -5 23 -2 44 6 48 4 71 -28 14
-18 30 -48 36 -66 11 -32 10 -34 -23 -48 -43 -18 -46 -27 -4 -12 39 14 50 1
20 -23 -13 -10 -18 -19 -12 -19 9 0 9 -5 1 -20 -6 -11 -17 -20 -25 -20 -8 0
-12 -6 -9 -13 3 -8 -2 -19 -10 -26 -9 -7 -18 -28 -22 -47 -8 -45 -23 -55 -96
-62 -44 -3 -57 -7 -43 -13 16 -6 12 -8 -15 -8 -48 -1 -100 15 -125 38 -11 11
-30 29 -42 40 -12 11 -27 39 -34 62 -11 36 -11 43 3 53 12 9 14 17 6 29 -7 13
-4 25 11 46 12 16 21 34 21 40 0 6 7 11 15 11 10 0 15 10 15 29 0 46 87 98
168 100 18 1 31 -2 29 -6z m350 -189 l28 -18 -25 -7 c-19 -5 -14 -7 23 -8 49
-1 60 -12 30 -31 -16 -9 -15 -10 5 -5 12 4 22 2 22 -4 0 -5 -8 -12 -17 -15
-11 -3 -9 -4 6 -3 30 2 40 -22 12 -30 -12 -3 -21 -9 -21 -14 0 -5 11 -7 25 -3
35 9 31 -4 -7 -22 l-33 -15 33 6 c41 8 45 -17 5 -40 -23 -13 -24 -15 -6 -10
19 5 22 3 16 -12 -12 -35 -26 -43 -72 -44 -36 -1 -41 -3 -21 -8 24 -7 23 -8
-15 -20 -82 -24 -118 -24 -144 -2 -13 12 -28 21 -32 21 -5 0 -20 18 -34 41
-21 32 -24 43 -14 55 8 10 8 14 0 14 -15 0 -14 16 2 32 8 7 19 23 26 35 6 12
27 30 46 39 20 9 34 19 31 21 -2 3 -14 0 -25 -7 -37 -19 -24 9 14 31 37 22 49
37 14 19 -24 -13 -34 -8 -26 14 11 29 104 24 154 -10z m338 -14 c44 -17 100
-39 125 -49 59 -23 63 -47 14 -91 -49 -42 -109 -70 -157 -70 -36 0 -37 1 -27
23 l11 22 -18 -22 -18 -21 -70 18 c-70 18 -70 18 -72 54 -2 30 2 38 25 51 15
8 21 14 14 15 -7 0 -22 -4 -32 -10 -14 -8 -19 -5 -23 11 -4 15 1 23 19 30 14
5 32 9 40 9 8 0 13 4 10 9 -4 5 -23 5 -46 -1 -42 -11 -65 -4 -40 12 13 9 13
10 0 11 -8 0 -3 5 13 11 15 5 27 13 27 17 0 20 129 2 205 -29z"/>
<path d="M1410 1884 c0 -6 7 -19 16 -30 14 -18 14 -18 3 6 -14 31 -19 36 -19
24z"/>
<path d="M1370 1825 c0 -5 5 -17 10 -25 5 -8 10 -10 10 -5 0 6 -5 17 -10 25
-5 8 -10 11 -10 5z"/>
<path d="M1361 1784 c0 -11 3 -14 6 -6 3 7 2 16 -1 19 -3 4 -6 -2 -5 -13z"/>
<path d="M1341 1764 c0 -11 3 -14 6 -6 3 7 2 16 -1 19 -3 4 -6 -2 -5 -13z"/>
<path d="M1764 1467 c16 -20 30 -37 33 -37 7 0 -36 58 -49 66 -7 4 1 -9 16
-29z"/>
<path d="M1800 1460 c6 -11 13 -20 16 -20 2 0 0 9 -6 20 -6 11 -13 20 -16 20
-2 0 0 -9 6 -20z"/>
<path d="M2339 1623 c-12 -16 -12 -17 1 -6 8 6 26 13 40 16 l25 4 -26 2 c-15
0 -33 -7 -40 -16z"/>
<path d="M2435 1610 c-3 -5 -1 -10 4 -10 6 0 11 5 11 10 0 6 -2 10 -4 10 -3 0
-8 -4 -11 -10z"/>
<path d="M2398 1603 c7 -3 16 -2 19 1 4 3 -2 6 -13 5 -11 0 -14 -3 -6 -6z"/>
<path d="M2210 1593 c1 -17 88 -93 123 -108 44 -18 49 -7 7 18 -17 10 -51 36
-76 58 -46 40 -54 45 -54 32z"/>
<path d="M2400 1460 c-18 -12 -2 -12 25 0 13 6 15 9 5 9 -8 0 -22 -4 -30 -9z"/>
<path d="M2353 1435 c-8 -23 -57 -45 -99 -45 -27 0 -46 7 -66 27 -15 14 -31
24 -34 20 -3 -3 6 -17 21 -31 23 -21 38 -26 79 -25 28 0 59 3 68 7 21 9 63 62
48 62 -6 0 -13 -7 -17 -15z"/>
<path d="M2388 1413 c7 -3 16 -2 19 1 4 3 -2 6 -13 5 -11 0 -14 -3 -6 -6z"/>
<path d="M2305 1360 c-27 -7 -28 -8 -5 -8 14 0 34 3 45 8 25 11 2 11 -40 0z"/>
<path d="M2228 1343 c6 -2 18 -2 25 0 6 3 1 5 -13 5 -14 0 -19 -2 -12 -5z"/>
<path d="M2248 1303 c12 -2 30 -2 40 0 9 3 -1 5 -23 4 -22 0 -30 -2 -17 -4z"/>
<path d="M2461 1382 c-1 -46 15 -71 54 -88 49 -20 77 -17 119 11 20 14 45 25
54 26 14 0 13 2 -3 8 -14 6 -29 1 -50 -14 -44 -33 -69 -38 -109 -21 -29 12
-38 23 -50 63 -14 45 -15 46 -15 15z"/>
<path d="M2658 1273 c7 -3 16 -2 19 1 4 3 -2 6 -13 5 -11 0 -14 -3 -6 -6z"/>
<path d="M2860 1410 c-19 -11 -30 -19 -25 -19 6 0 26 8 45 19 19 11 31 19 25
19 -5 0 -26 -8 -45 -19z"/>
<path d="M2945 1400 c-3 -6 1 -7 9 -4 18 7 21 14 7 14 -6 0 -13 -4 -16 -10z"/>
<path d="M2882 1360 c-23 -17 -42 -33 -42 -36 0 -3 20 9 45 27 41 30 51 39 42
39 -2 0 -23 -14 -45 -30z"/>
<path d="M2994 1368 l-19 -23 23 19 c12 11 22 21 22 23 0 8 -8 2 -26 -19z"/>
<path d="M3571 3455 c0 -5 6 -21 14 -35 8 -14 14 -20 14 -15 0 6 -6 21 -14 35
-8 14 -14 21 -14 15z"/>
<path d="M3571 3370 c12 -22 24 -38 26 -36 4 4 -37 76 -44 76 -2 0 6 -18 18
-40z"/>
<path d="M3630 3406 c0 -2 8 -10 18 -17 15 -13 16 -12 3 4 -13 16 -21 21 -21
13z"/>
<path d="M3610 3364 c0 -13 18 -39 24 -34 2 3 -2 14 -10 24 -8 11 -14 16 -14
10z"/>
<path d="M1167 3339 c7 -7 15 -10 18 -7 3 3 -2 9 -12 12 -14 6 -15 5 -6 -5z"/>
<path d="M1249 3326 c13 -16 51 -41 51 -33 0 2 -15 14 -32 27 -21 15 -28 17
-19 6z"/>
<path d="M3633 3313 c3 -5 0 -50 -8 -99 -8 -49 -15 -96 -14 -104 1 -27 17 37
24 99 4 34 10 59 15 56 4 -2 5 7 2 20 -2 14 -9 28 -15 32 -5 3 -7 2 -4 -4z"/>
<path d="M1456 3269 c3 -5 9 -7 14 -4 5 3 20 1 32 -6 18 -9 21 -9 11 1 -14 15
-66 23 -57 9z"/>
<path d="M1570 3251 c19 -17 39 -31 44 -31 5 0 7 1 5 3 -2 2 -22 15 -44 31
l-40 27 35 -30z"/>
<path d="M3682 3255 c0 -16 2 -22 5 -12 2 9 2 23 0 30 -3 6 -5 -1 -5 -18z"/>
<path d="M3732 3200 c0 -19 2 -27 5 -17 2 9 2 25 0 35 -3 9 -5 1 -5 -18z"/>
<path d="M2602 3185 c0 -16 2 -22 5 -12 2 9 2 23 0 30 -3 6 -5 -1 -5 -18z"/>
<path d="M2672 3190 c0 -14 2 -19 5 -12 2 6 2 18 0 25 -3 6 -5 1 -5 -13z"/>
<path d="M2833 3130 c0 -36 2 -50 4 -32 2 17 2 47 0 65 -2 17 -4 3 -4 -33z"/>
<path d="M3776 3150 c-3 -22 -9 -58 -12 -80 -3 -22 -10 -42 -14 -45 -11 -7
-33 72 -26 92 3 8 2 11 -3 8 -5 -3 -12 3 -15 12 -3 10 -2 -2 1 -27 3 -25 11
-59 18 -76 13 -32 3 -66 -33 -106 -13 -15 -13 -18 -1 -18 35 0 127 258 99 275
-5 3 -11 -13 -14 -35z"/>
<path d="M2801 3144 c0 -11 3 -14 6 -6 3 7 2 16 -1 19 -3 4 -6 -2 -5 -13z"/>
<path d="M2481 3074 c0 -43 4 -88 9 -99 5 -12 6 18 3 75 -3 52 -7 97 -9 99 -2
2 -4 -31 -3 -75z"/>
<path d="M3582 3130 c0 -14 2 -19 5 -12 2 6 2 18 0 25 -3 6 -5 1 -5 -13z"/>
<path d="M4011 3114 c0 -11 3 -14 6 -6 3 7 2 16 -1 19 -3 4 -6 -2 -5 -13z"/>
<path d="M3941 3108 c0 -9 -4 -25 -7 -35 -5 -17 -5 -17 6 0 6 10 9 25 7 35 -4
15 -5 15 -6 0z"/>
<path d="M2811 3094 c0 -11 3 -14 6 -6 3 7 2 16 -1 19 -3 4 -6 -2 -5 -13z"/>
<path d="M2923 3085 c7 -13 14 -20 15 -14 5 14 -6 39 -17 39 -5 0 -4 -11 2
-25z"/>
<path d="M2859 3098 c-1 -2 -2 -15 -3 -30 -2 -31 8 -37 18 -12 9 23 8 26 -6
18 -8 -5 -9 -2 -5 9 5 13 1 25 -4 15z"/>
<path d="M2401 3074 c0 -11 3 -14 6 -6 3 7 2 16 -1 19 -3 4 -6 -2 -5 -13z"/>
<path d="M4020 3085 c0 -5 5 -17 10 -25 5 -8 10 -10 10 -5 0 6 -5 17 -10 25
-5 8 -10 11 -10 5z"/>
<path d="M3602 3060 c0 -14 2 -19 5 -12 2 6 2 18 0 25 -3 6 -5 1 -5 -13z"/>
<path d="M3812 3055 c0 -16 2 -22 5 -12 2 9 2 23 0 30 -3 6 -5 -1 -5 -18z"/>
<path d="M3517 3038 c9 -53 32 -141 38 -146 10 -10 5 33 -12 105 -18 72 -38
104 -26 41z"/>
<path d="M3946 3054 c-8 -21 -8 -21 8 -21 8 0 11 8 8 19 -5 22 -8 23 -16 2z"/>
<path d="M3475 3037 c5 -20 2 -33 -11 -48 -16 -18 -19 -19 -30 -4 -11 14 -12
14 -18 0 -3 -9 -2 -13 4 -10 6 4 8 -7 4 -27 -5 -33 -5 -33 9 -9 14 24 15 22
15 -30 0 -30 -6 -69 -13 -86 -8 -18 -10 -35 -5 -38 12 -8 32 59 34 116 1 34 3
43 9 29 4 -11 10 -29 15 -40 4 -12 7 16 6 65 0 55 -5 90 -13 98 -10 10 -11 7
-6 -16z m5 -63 c0 -8 -5 -12 -10 -9 -6 4 -8 11 -5 16 9 14 15 11 15 -7z"/>
<path d="M3621 3030 c0 -29 1 -32 10 -17 7 11 7 23 0 35 -9 14 -10 11 -10 -18z"/>
<path d="M4050 3020 c6 -11 13 -20 16 -20 2 0 0 9 -6 20 -6 11 -13 20 -16 20
-2 0 0 -9 6 -20z"/>
<path d="M3562 3010 c0 -14 2 -19 5 -12 2 6 2 18 0 25 -3 6 -5 1 -5 -13z"/>
<path d="M2426 2995 c8 -37 14 -45 14 -19 0 10 -5 26 -10 34 -8 11 -9 7 -4
-15z"/>
<path d="M3827 3013 c-11 -10 -8 -123 3 -123 6 0 10 28 10 65 0 65 -1 71 -13
58z"/>
<path d="M4002 2953 c2 -40 6 -75 10 -78 3 -3 3 27 1 67 -3 40 -7 75 -9 78 -3
2 -4 -28 -2 -67z"/>
<path d="M4232 2990 c0 -14 2 -19 5 -12 2 6 2 18 0 25 -3 6 -5 1 -5 -13z"/>
<path d="M4081 2963 c8 -13 17 -23 21 -23 4 0 5 -6 2 -14 -3 -8 -1 -16 4 -20
19 -11 4 36 -17 57 l-23 22 13 -22z"/>
<path d="M2370 2907 c0 -36 4 -69 10 -72 6 -4 7 19 3 62 -8 89 -13 93 -13 10z"/>
<path d="M3901 2900 c0 -41 3 -80 7 -87 4 -7 6 20 4 60 -4 102 -10 115 -11 27z"/>
<path d="M2220 2955 c0 -5 5 -17 10 -25 5 -8 10 -10 10 -5 0 6 -5 17 -10 25
-5 8 -10 11 -10 5z"/>
<path d="M3611 2953 c-1 -6 -4 -20 -7 -30 -5 -17 -5 -17 6 0 6 10 9 23 6 30
-3 9 -5 9 -5 0z"/>
<path d="M4133 2941 c1 -12 12 -32 26 -44 l24 -22 -23 40 c-13 22 -25 42 -26
44 -2 2 -2 -6 -1 -18z"/>
<path d="M4073 2900 c0 -25 2 -35 4 -22 2 12 2 32 0 45 -2 12 -4 2 -4 -23z"/>
<path d="M4210 2920 c6 -11 13 -20 16 -20 2 0 0 9 -6 20 -6 11 -13 20 -16 20
-2 0 0 -9 6 -20z"/>
<path d="M4241 2924 c0 -11 3 -14 6 -6 3 7 2 16 -1 19 -3 4 -6 -2 -5 -13z"/>
<path d="M2307 2914 c3 -9 0 -20 -7 -24 -7 -4 -9 -13 -5 -20 6 -9 9 -9 15 0 6
9 13 4 24 -16 22 -41 20 -25 -4 30 -19 43 -37 66 -23 30z"/>
<path d="M3861 2904 c0 -11 3 -14 6 -6 3 7 2 16 -1 19 -3 4 -6 -2 -5 -13z"/>
<path d="M4042 2890 c-1 -14 3 -43 7 -65 6 -26 9 -31 9 -15 1 14 -3 43 -7 65
-6 26 -9 31 -9 15z"/>
<path d="M3313 2865 c0 -22 2 -30 4 -17 2 12 2 30 0 40 -3 9 -5 -1 -4 -23z"/>
<path d="M2251 2885 c0 -5 8 -26 19 -45 11 -19 19 -30 19 -25 0 6 -8 26 -19
45 -11 19 -19 31 -19 25z"/>
<path d="M3253 2855 c0 -22 2 -30 4 -17 2 12 2 30 0 40 -3 9 -5 -1 -4 -23z"/>
<path d="M3202 2860 c0 -14 2 -19 5 -12 2 6 2 18 0 25 -3 6 -5 1 -5 -13z"/>
<path d="M3739 2853 c-13 -16 -12 -17 4 -4 16 13 21 21 13 21 -2 0 -10 -8 -17
-17z"/>
<path d="M3860 2846 c0 -28 18 -81 25 -74 3 3 2 26 -1 51 -7 49 -24 65 -24 23z"/>
<path d="M1890 2850 c0 -14 39 -32 63 -28 18 2 13 6 -20 20 -24 9 -43 12 -43
8z"/>
<path d="M2835 2808 l-50 -53 53 50 c28 27 52 51 52 52 0 8 -9 -1 -55 -49z"/>
<path d="M2241 2834 c0 -11 3 -14 6 -6 3 7 2 16 -1 19 -3 4 -6 -2 -5 -13z"/>
<path d="M3323 2775 c0 -22 2 -30 4 -17 2 12 2 30 0 40 -3 9 -5 -1 -4 -23z"/>
<path d="M3821 2794 c0 -11 3 -14 6 -6 3 7 2 16 -1 19 -3 4 -6 -2 -5 -13z"/>
<path d="M2836 2781 c-3 -4 6 -6 19 -3 14 2 25 6 25 8 0 8 -39 4 -44 -5z"/>
<path d="M2260 2771 c0 -6 4 -13 10 -16 6 -3 7 1 4 9 -7 18 -14 21 -14 7z"/>
<path d="M3516 2755 c8 -37 14 -45 14 -19 0 10 -5 26 -10 34 -8 11 -9 7 -4
-15z"/>
<path d="M2221 2754 c0 -11 3 -14 6 -6 3 7 2 16 -1 19 -3 4 -6 -2 -5 -13z"/>
<path d="M3417 2737 l-17 -32 20 24 c17 20 26 41 18 41 -2 0 -11 -15 -21 -33z"/>
<path d="M3575 2759 c-4 -6 -5 -12 -2 -15 2 -3 7 2 10 11 7 17 1 20 -8 4z"/>
<path d="M2905 2698 l-50 -53 53 50 c48 46 57 55 49 55 -1 0 -25 -24 -52 -52z"/>
<path d="M2000 2712 c0 -11 -7 -25 -16 -33 -8 -7 -22 -25 -29 -40 -14 -26 -19
-27 -110 -34 -53 -4 -94 -10 -91 -12 3 -3 48 -2 100 2 l96 7 28 41 c35 53 44
75 32 82 -6 4 -10 -3 -10 -13z"/>
<path d="M2120 2725 c0 -2 9 -19 20 -37 23 -39 27 -30 5 12 -14 27 -25 38 -25
25z"/>
<path d="M3442 2705 c0 -16 2 -22 5 -12 2 9 2 23 0 30 -3 6 -5 -1 -5 -18z"/>
<path d="M3639 2703 c-13 -16 -12 -17 4 -4 16 13 21 21 13 21 -2 0 -10 -8 -17
-17z"/>
<path d="M2994 2688 c-41 -30 -52 -42 -29 -30 26 15 72 51 64 52 -4 0 -19 -10
-35 -22z"/>
<path d="M3026 2642 l-30 -37 37 34 c38 36 42 42 30 40 -5 0 -21 -17 -37 -37z"/>
<path d="M4341 2664 c0 -11 3 -14 6 -6 3 7 2 16 -1 19 -3 4 -6 -2 -5 -13z"/>
<path d="M2050 2665 c0 -5 5 -17 10 -25 5 -8 10 -10 10 -5 0 6 -5 17 -10 25
-5 8 -10 11 -10 5z"/>
<path d="M3232 2626 c-33 -24 -63 -50 -67 -56 -6 -9 98 64 130 92 27 24 -11 2
-63 -36z"/>
<path d="M3760 2655 c-7 -8 -40 -29 -74 -46 -33 -16 -50 -27 -36 -23 33 8 103
49 120 68 7 9 10 16 7 16 -2 0 -10 -7 -17 -15z"/>
<path d="M2160 2643 c0 -16 19 -37 35 -39 14 -2 13 2 -6 22 -24 26 -29 29 -29
17z"/>
<path d="M4251 2645 c0 -5 6 -21 14 -35 8 -14 14 -20 14 -15 0 6 -6 21 -14 35
-8 14 -14 21 -14 15z"/>
<path d="M4186 2622 c-6 -9 18 -72 27 -72 2 0 3 10 2 23 -1 30 -20 63 -29 49z
m22 -37 c-3 -3 -9 2 -12 12 -6 14 -5 15 5 6 7 -7 10 -15 7 -18z"/>
<path d="M2276 2598 c2 -4 -9 -15 -26 -24 -20 -12 -26 -20 -18 -26 7 -4 27 4
47 19 19 15 31 20 26 12 -8 -12 -6 -12 8 0 24 19 21 26 -12 26 -16 0 -27 -3
-25 -7z"/>
<path d="M3039 2573 c-13 -16 -12 -17 4 -4 16 13 21 21 13 21 -2 0 -10 -8 -17
-17z"/>
<path d="M3371 2539 c-7 -22 -11 -43 -8 -45 2 -2 9 14 16 37 7 22 11 43 8 45
-2 2 -9 -14 -16 -37z"/>
<path d="M2309 2530 c-24 -16 -49 -30 -55 -30 -6 0 -21 -12 -35 -26 -17 -19 0
-11 59 26 72 46 91 60 79 60 -2 0 -24 -13 -48 -30z"/>
<path d="M2002 2525 c0 -16 2 -22 5 -12 2 9 2 23 0 30 -3 6 -5 -1 -5 -18z"/>
<path d="M2264 2528 l-19 -23 23 19 c21 18 27 26 19 26 -2 0 -12 -10 -23 -22z"/>
<path d="M2199 2513 l-24 -28 28 24 c25 23 32 31 24 31 -2 0 -14 -12 -28 -27z"/>
<path d="M2281 2459 c-28 -22 -51 -43 -51 -46 0 -3 21 12 48 33 61 49 67 54
60 54 -3 0 -28 -18 -57 -41z"/>
<path d="M2149 2473 c-13 -16 -12 -17 4 -4 9 7 17 15 17 17 0 8 -8 3 -21 -13z"/>
<path d="M3569 2473 c-13 -16 -12 -17 4 -4 16 13 21 21 13 21 -2 0 -10 -8 -17
-17z"/>
<path d="M3350 2465 c0 -10 -8 -27 -17 -37 -16 -18 -16 -18 0 -12 18 6 34 50
23 61 -3 4 -6 -2 -6 -12z"/>
<path d="M3379 2463 c-13 -16 -12 -17 4 -4 9 7 17 15 17 17 0 8 -8 3 -21 -13z"/>
<path d="M4097 2445 c-9 -20 -17 -41 -17 -48 0 -7 9 8 20 32 24 52 21 66 -3
16z"/>
<path d="M2379 2429 l-44 -41 48 38 c26 21 47 40 47 41 0 8 -11 0 -51 -38z"/>
<path d="M2176 2442 c-3 -5 1 -9 9 -9 8 0 12 4 9 9 -3 4 -7 8 -9 8 -2 0 -6 -4
-9 -8z"/>
<path d="M2301 2403 c-17 -21 -31 -42 -31 -48 0 -5 7 2 17 15 9 14 25 35 36
48 11 12 18 22 14 22 -3 0 -19 -17 -36 -37z"/>
<path d="M2424 2395 c-15 -20 -25 -37 -23 -39 2 -2 16 14 31 35 35 49 28 51
-8 4z"/>
<path d="M2832 2397 c-18 -18 -32 -39 -32 -47 1 -10 4 -8 12 5 6 11 22 32 36
48 36 38 22 34 -16 -6z"/>
<path d="M3530 2409 c-7 -11 -10 -23 -7 -25 2 -2 9 7 15 21 14 30 7 33 -8 4z"/>
<path d="M2170 2405 c-7 -9 -8 -15 -2 -15 5 0 12 7 16 15 3 8 4 15 2 15 -2 0
-9 -7 -16 -15z"/>
<path d="M3429 2393 c-13 -16 -12 -17 4 -4 16 13 21 21 13 21 -2 0 -10 -8 -17
-17z"/>
<path d="M2486 2375 c-9 -26 -7 -32 5 -12 6 10 9 21 6 23 -2 3 -7 -2 -11 -11z"/>
<path d="M2555 2364 c-9 -15 -12 -23 -6 -20 11 7 35 46 28 46 -3 0 -12 -12
-22 -26z"/>
<path d="M3020 2360 c-18 -12 -2 -12 25 0 13 6 15 9 5 9 -8 0 -22 -4 -30 -9z"/>
<path d="M3675 2348 c2 -9 -2 -19 -7 -20 -5 -2 -8 -14 -6 -26 3 -19 6 -16 25
19 12 23 16 36 9 29 -11 -8 -15 -8 -19 2 -2 7 -3 5 -2 -4z"/>
<path d="M3189 2333 c-13 -17 -13 -17 6 -3 11 8 22 16 24 17 2 2 0 3 -6 3 -6
0 -17 -8 -24 -17z"/>
<path d="M2466 2325 c-3 -9 -6 -22 -5 -28 0 -7 5 -1 10 12 5 13 8 26 5 28 -2
2 -6 -3 -10 -12z"/>
<path d="M2800 2299 l-35 -30 38 26 c33 24 43 35 34 35 -1 0 -18 -14 -37 -31z"/>
<path d="M3725 2280 c-27 -27 -47 -52 -44 -54 2 -3 26 20 52 50 27 30 47 54
45 54 -2 0 -26 -22 -53 -50z"/>
<path d="M3085 2304 c-61 -33 -215 -126 -215 -131 0 -3 21 8 48 23 26 16 80
47 120 70 68 39 92 55 81 54 -2 -1 -17 -8 -34 -16z"/>
<path d="M3149 2303 c-13 -16 -12 -17 4 -4 16 13 21 21 13 21 -2 0 -10 -8 -17
-17z"/>
<path d="M3176 2288 c-23 -29 -32 -48 -22 -48 2 0 15 18 30 40 32 48 29 52 -8
8z"/>
<path d="M2950 2269 c-59 -44 -86 -68 -60 -53 26 15 120 86 120 90 0 7 -4 5
-60 -37z"/>
<path d="M3913 2275 c0 -22 2 -30 4 -17 2 12 2 30 0 40 -3 9 -5 -1 -4 -23z"/>
<path d="M4030 2280 c-4 -26 1 -78 10 -107 l8 -28 0 30 c1 37 -15 125 -18 105z"/>
<path d="M2839 2253 c-13 -16 -12 -17 4 -4 9 7 17 15 17 17 0 8 -8 3 -21 -13z"/>
<path d="M3074 2248 l-19 -23 23 19 c12 11 22 21 22 23 0 8 -8 2 -26 -19z"/>
<path d="M3791 2253 c-1 -6 -4 -20 -7 -30 -5 -17 -5 -17 6 0 6 10 9 23 6 30
-3 9 -5 9 -5 0z"/>
<path d="M4073 2220 c0 -25 2 -35 4 -22 2 12 2 32 0 45 -2 12 -4 2 -4 -23z"/>
<path d="M3029 2213 c-13 -16 -12 -17 4 -4 16 13 21 21 13 21 -2 0 -10 -8 -17
-17z"/>
<path d="M3106 2109 c-20 -33 -36 -66 -36 -72 0 -7 6 -1 13 13 7 14 26 46 41
73 15 26 26 47 23 47 -3 0 -21 -27 -41 -61z"/>
<path d="M3064 2138 l-19 -23 23 19 c12 11 22 21 22 23 0 8 -8 2 -26 -19z"/>
<path d="M3165 2139 c-4 -6 -5 -12 -2 -15 2 -3 7 2 10 11 7 17 1 20 -8 4z"/>
<path d="M3680 2086 c-25 -18 -52 -35 -60 -39 -9 -3 -10 -6 -3 -6 7 -1 38 17
69 39 32 22 53 40 48 40 -5 0 -29 -15 -54 -34z"/>
<path d="M3839 2103 c-13 -16 -12 -17 4 -4 16 13 21 21 13 21 -2 0 -10 -8 -17
-17z"/>
<path d="M3740 2090 c-6 -11 -8 -20 -6 -20 3 0 10 9 16 20 6 11 8 20 6 20 -3
0 -10 -9 -16 -20z"/>
<path d="M4006 2083 c-6 -14 -5 -15 5 -6 7 7 10 15 7 18 -3 3 -9 -2 -12 -12z"/>
<path d="M1628 2073 c12 -2 32 -2 45 0 12 2 2 4 -23 4 -25 0 -35 -2 -22 -4z"/>
<path d="M3960 2048 c-15 -21 -17 -28 -6 -19 16 13 41 51 33 51 -2 0 -14 -15
-27 -32z"/>
<path d="M3850 2040 c-31 -26 -32 -28 -8 -17 14 6 31 20 37 29 15 25 11 23
-29 -12z"/>
<path d="M1655 2050 c-4 -6 3 -10 14 -10 25 0 27 6 6 13 -8 4 -17 2 -20 -3z"/>
<path d="M2015 2035 c-16 -7 -34 -11 -40 -8 -6 3 -5 1 1 -6 11 -12 67 1 89 20
14 13 -15 10 -50 -6z"/>
<path d="M3160 2035 c-7 -9 -8 -15 -2 -15 5 0 12 7 16 15 3 8 4 15 2 15 -2 0
-9 -7 -16 -15z"/>
<path d="M1926 2011 c-12 -5 -16 -10 -9 -14 13 -8 43 2 43 14 0 10 -8 10 -34
0z"/>
<path d="M2054 1994 c-18 -14 -18 -14 6 -3 31 14 36 19 24 19 -6 0 -19 -7 -30
-16z"/>
<path d="M3005 1990 c-11 -12 -51 -45 -90 -75 -43 -33 -71 -62 -72 -75 -2 -27
7 -25 44 8 30 26 147 162 140 162 -2 0 -12 -9 -22 -20z m-90 -104 c-22 -34
-62 -59 -62 -41 0 8 3 12 7 10 4 -2 20 9 35 25 35 36 41 38 20 6z"/>
<path d="M3050 1963 c-30 -32 -33 -37 -9 -15 19 18 38 30 42 27 4 -3 5 -2 2 2
-3 3 0 12 6 20 27 31 0 9 -41 -34z"/>
<path d="M2238 1973 c7 -3 16 -2 19 1 4 3 -2 6 -13 5 -11 0 -14 -3 -6 -6z"/>
<path d="M2390 1960 c-8 -5 -10 -10 -5 -10 6 0 17 5 25 10 8 5 11 10 5 10 -5
0 -17 -5 -25 -10z"/>
<path d="M3106 1910 c-26 -33 -54 -66 -62 -75 -9 -8 -11 -15 -6 -15 5 0 20 14
33 31 50 65 65 85 78 102 7 9 11 17 9 17 -3 0 -26 -27 -52 -60z"/>
<path d="M3189 1953 c-13 -16 -12 -17 4 -4 16 13 21 21 13 21 -2 0 -10 -8 -17
-17z"/>
<path d="M2168 1953 c7 -3 16 -2 19 1 4 3 -2 6 -13 5 -11 0 -14 -3 -6 -6z"/>
<path d="M2105 1935 c-25 -12 -26 -14 -5 -9 28 7 60 23 45 23 -5 0 -23 -6 -40
-14z"/>
<path d="M2433 1943 c9 -2 23 -2 30 0 6 3 -1 5 -18 5 -16 0 -22 -2 -12 -5z"/>
<path d="M3039 1923 c-36 -41 -56 -68 -42 -60 13 8 77 87 71 87 -2 0 -15 -12
-29 -27z"/>
<path d="M2430 1910 c7 -4 -1 -12 -20 -20 -17 -7 -33 -17 -36 -22 -5 -7 91 36
104 47 1 1 -12 2 -28 2 -17 0 -26 -3 -20 -7z"/>
<path d="M3324 1848 c-61 -64 -90 -98 -82 -98 2 0 37 36 77 80 40 44 71 80 69
80 -2 0 -31 -28 -64 -62z"/>
<path d="M2495 1875 c-16 -8 -23 -14 -15 -14 8 0 26 6 40 14 32 18 15 18 -25
0z"/>
<path d="M3100 1850 c-12 -23 2 -27 19 -6 8 9 8 16 2 20 -6 4 -15 -3 -21 -14z"/>
<path d="M3414 1849 c-10 -11 -19 -27 -20 -36 -2 -9 -6 -19 -11 -22 -4 -3 -17
-17 -28 -31 -11 -14 2 -5 29 20 26 25 52 53 57 62 14 25 -6 31 -27 7z m26 8
c0 -2 -10 -12 -22 -23 l-23 -19 19 23 c18 21 26 27 26 19z"/>
<path d="M3474 1838 l-19 -23 23 19 c21 18 27 26 19 26 -2 0 -12 -10 -23 -22z"/>
<path d="M2670 1835 c-14 -8 -20 -14 -15 -14 6 0 21 6 35 14 14 8 21 14 15 14
-5 0 -21 -6 -35 -14z"/>
<path d="M2936 1824 c-20 -19 -20 -25 -2 -18 8 3 17 12 20 20 7 18 1 18 -18
-2z"/>
<path d="M3359 1803 c-13 -16 -12 -17 4 -4 16 13 21 21 13 21 -2 0 -10 -8 -17
-17z"/>
<path d="M3429 1783 l-24 -28 28 24 c15 14 27 26 27 28 0 8 -8 1 -31 -24z"/>
<path d="M2785 1768 l-30 -32 33 23 c17 12 32 27 32 32 0 13 -2 12 -35 -23z"/>
<path d="M2850 1749 l-55 -51 58 47 c50 42 64 55 55 55 -2 0 -28 -23 -58 -51z"/>
<path d="M3470 1748 c-16 -29 -30 -57 -30 -62 0 -12 1 -10 38 57 18 31 30 57
27 57 -2 0 -18 -24 -35 -52z"/>
<path d="M3432 1735 c-12 -25 -18 -45 -14 -45 7 0 44 81 39 86 -2 2 -13 -17
-25 -41z"/>
<path d="M3509 1753 c-13 -16 -12 -17 4 -4 16 13 21 21 13 21 -2 0 -10 -8 -17
-17z"/>
<path d="M3010 1724 c-60 -40 -94 -69 -45 -39 82 50 115 75 102 75 -1 0 -27
-16 -57 -36z"/>
<path d="M3548 1744 c-39 -21 -35 -28 5 -8 37 19 44 24 31 24 -5 -1 -21 -8
-36 -16z"/>
<path d="M3386 1735 c-11 -8 -17 -17 -14 -20 2 -3 13 4 23 15 21 23 18 25 -9
5z"/>
<path d="M2859 1723 c-13 -16 -12 -17 4 -4 9 7 17 15 17 17 0 8 -8 3 -21 -13z"/>
<path d="M3476 1715 c-3 -8 -1 -15 4 -15 6 0 10 7 10 15 0 8 -2 15 -4 15 -2 0
-6 -7 -10 -15z"/>
<path d="M3094 1698 l-19 -23 23 19 c21 18 27 26 19 26 -2 0 -12 -10 -23 -22z"/>
<path d="M3610 1659 c-19 -15 -30 -28 -25 -28 12 0 69 48 64 54 -2 2 -20 -10
-39 -26z"/>
<path d="M2870 1620 c-8 -5 -10 -10 -5 -10 6 0 17 5 25 10 8 5 11 10 5 10 -5
0 -17 -5 -25 -10z"/>
<path d="M2515 1610 c-3 -6 1 -7 9 -4 18 7 21 14 7 14 -6 0 -13 -4 -16 -10z"/>
<path d="M3054 1564 c-18 -14 -18 -15 4 -4 12 6 22 13 22 15 0 8 -5 6 -26 -11z"/>
<path d="M3130 1560 c-9 -6 -10 -10 -3 -10 6 0 15 5 18 10 8 12 4 12 -15 0z"/>
<path d="M3240 1500 c-25 -16 -42 -30 -37 -30 8 0 87 51 87 56 0 7 -4 5 -50
-26z"/>
<path d="M3304 1498 l-29 -33 33 29 c30 28 37 36 29 36 -2 0 -16 -15 -33 -32z"/>
<path d="M3330 1490 c-9 -6 -10 -10 -3 -10 6 0 15 5 18 10 8 12 4 12 -15 0z"/>
</g>
</svg>
